<?xml version="1.0" encoding="UTF-8" standalone="no"?>
<!DOCTYPE svg PUBLIC "-//W3C//DTD SVG 1.1//EN"
 "http://www.w3.org/Graphics/SVG/1.1/DTD/svg11.dtd">
<!-- Generated by graphviz version 2.30.1 (20130528.1538)
 -->
<!-- Title: controllers_diagram Pages: 1 -->
<svg width="774pt" height="590pt"
 viewBox="0.00 0.00 774.38 589.89" xmlns="http://www.w3.org/2000/svg" xmlns:xlink="http://www.w3.org/1999/xlink">
<g id="graph0" class="graph" transform="scale(1 1) rotate(0) translate(4 585.889)">
<title>controllers_diagram</title>
<polygon fill="white" stroke="white" points="-4,5 -4,-585.889 771.375,-585.889 771.375,5 -4,5"/>
<!-- _diagram_info -->
<g id="node1" class="node"><title>_diagram_info</title>
<text text-anchor="start" x="567" y="-69" font-family="Times,serif" font-size="13.00">Controllers diagram</text>
<text text-anchor="start" x="567" y="-53.4" font-family="Times,serif" font-size="13.00">Date: May 28 2013 &#45; 18:50</text>
<text text-anchor="start" x="567" y="-37.8" font-family="Times,serif" font-size="13.00">Migration version: 20130528134141</text>
<text text-anchor="start" x="567" y="-22.2" font-family="Times,serif" font-size="13.00">Generated by RailRoady 1.1.0</text>
<text text-anchor="start" x="567" y="-6.6" font-family="Times,serif" font-size="13.00">http://railroady.prestonlee.com</text>
</g>
<!-- ApplicationController -->
<g id="node2" class="node"><title>ApplicationController</title>
<path fill="none" stroke="black" d="M184.31,-236.22C184.31,-236.22 362.945,-236.22 362.945,-236.22 368.945,-236.22 374.945,-242.22 374.945,-248.22 374.945,-248.22 374.945,-322.62 374.945,-322.62 374.945,-328.62 368.945,-334.62 362.945,-334.62 362.945,-334.62 184.31,-334.62 184.31,-334.62 178.31,-334.62 172.31,-328.62 172.31,-322.62 172.31,-322.62 172.31,-248.22 172.31,-248.22 172.31,-242.22 178.31,-236.22 184.31,-236.22"/>
<text text-anchor="middle" x="273.627" y="-316.62" font-family="Times,serif" font-size="14.00">ApplicationController</text>
<polyline fill="none" stroke="black" points="172.31,-309.82 374.945,-309.82 "/>
<text text-anchor="start" x="180.31" y="-291.82" font-family="Times,serif" font-size="14.00">_one_time_conditions_valid_14?</text>
<polyline fill="none" stroke="black" points="172.31,-285.02 374.945,-285.02 "/>
<polyline fill="none" stroke="black" points="172.31,-261.02 374.945,-261.02 "/>
<text text-anchor="start" x="180.31" y="-243.02" font-family="Times,serif" font-size="14.00">_layout</text>
</g>
<!-- ClientsController -->
<g id="node3" class="node"><title>ClientsController</title>
<path fill="none" stroke="black" d="M373.977,-0.5C373.977,-0.5 463.191,-0.5 463.191,-0.5 469.191,-0.5 475.191,-6.5 475.191,-12.5 475.191,-12.5 475.191,-187.7 475.191,-187.7 475.191,-193.7 469.191,-199.7 463.191,-199.7 463.191,-199.7 373.977,-199.7 373.977,-199.7 367.977,-199.7 361.977,-193.7 361.977,-187.7 361.977,-187.7 361.977,-12.5 361.977,-12.5 361.977,-6.5 367.977,-0.5 373.977,-0.5"/>
<text text-anchor="middle" x="418.584" y="-181.7" font-family="Times,serif" font-size="14.00">ClientsController</text>
<polyline fill="none" stroke="black" points="361.977,-174.9 475.191,-174.9 "/>
<text text-anchor="start" x="369.977" y="-156.9" font-family="Times,serif" font-size="14.00">create</text>
<text text-anchor="start" x="369.977" y="-140.1" font-family="Times,serif" font-size="14.00">destroy</text>
<text text-anchor="start" x="369.977" y="-123.3" font-family="Times,serif" font-size="14.00">edit</text>
<text text-anchor="start" x="369.977" y="-106.5" font-family="Times,serif" font-size="14.00">index</text>
<text text-anchor="start" x="369.977" y="-89.7" font-family="Times,serif" font-size="14.00">new</text>
<text text-anchor="start" x="369.977" y="-72.9" font-family="Times,serif" font-size="14.00">show</text>
<text text-anchor="start" x="369.977" y="-56.1" font-family="Times,serif" font-size="14.00">update</text>
<polyline fill="none" stroke="black" points="361.977,-49.3 475.191,-49.3 "/>
<polyline fill="none" stroke="black" points="361.977,-25.3 475.191,-25.3 "/>
<text text-anchor="start" x="369.977" y="-7.3" font-family="Times,serif" font-size="14.00">_layout</text>
</g>
<!-- ApplicationController&#45;&gt;ClientsController -->
<g id="edge1" class="edge"><title>ApplicationController&#45;&gt;ClientsController</title>
<path fill="none" stroke="black" d="M312.473,-235.758C327.652,-216.352 345.36,-193.713 361.912,-172.552"/>
</g>
<!-- DocumentsController -->
<g id="node4" class="node"><title>DocumentsController</title>
<path fill="none" stroke="black" d="M45.3405,-5.36616C45.3405,-5.36616 158.651,-5.36616 158.651,-5.36616 164.651,-5.36616 170.651,-11.3662 170.651,-17.3662 170.651,-17.3662 170.651,-192.566 170.651,-192.566 170.651,-198.566 164.651,-204.566 158.651,-204.566 158.651,-204.566 45.3405,-204.566 45.3405,-204.566 39.3405,-204.566 33.3405,-198.566 33.3405,-192.566 33.3405,-192.566 33.3405,-17.3662 33.3405,-17.3662 33.3405,-11.3662 39.3405,-5.36616 45.3405,-5.36616"/>
<text text-anchor="middle" x="101.996" y="-186.566" font-family="Times,serif" font-size="14.00">DocumentsController</text>
<polyline fill="none" stroke="black" points="33.3405,-179.766 170.651,-179.766 "/>
<text text-anchor="start" x="41.3405" y="-161.766" font-family="Times,serif" font-size="14.00">create</text>
<text text-anchor="start" x="41.3405" y="-144.966" font-family="Times,serif" font-size="14.00">destroy</text>
<text text-anchor="start" x="41.3405" y="-128.166" font-family="Times,serif" font-size="14.00">edit</text>
<text text-anchor="start" x="41.3405" y="-111.366" font-family="Times,serif" font-size="14.00">index</text>
<text text-anchor="start" x="41.3405" y="-94.5662" font-family="Times,serif" font-size="14.00">new</text>
<text text-anchor="start" x="41.3405" y="-77.7662" font-family="Times,serif" font-size="14.00">show</text>
<text text-anchor="start" x="41.3405" y="-60.9662" font-family="Times,serif" font-size="14.00">update</text>
<polyline fill="none" stroke="black" points="33.3405,-54.1662 170.651,-54.1662 "/>
<polyline fill="none" stroke="black" points="33.3405,-30.1662 170.651,-30.1662 "/>
<text text-anchor="start" x="41.3405" y="-12.1662" font-family="Times,serif" font-size="14.00">_layout</text>
</g>
<!-- ApplicationController&#45;&gt;DocumentsController -->
<g id="edge2" class="edge"><title>ApplicationController&#45;&gt;DocumentsController</title>
<path fill="none" stroke="black" d="M226.728,-236.11C209.459,-217.953 189.521,-196.99 170.723,-177.227"/>
</g>
<!-- OrdersController -->
<g id="node5" class="node"><title>OrdersController</title>
<path fill="none" stroke="black" d="M12,-348.589C12,-348.589 190.635,-348.589 190.635,-348.589 196.635,-348.589 202.635,-354.589 202.635,-360.589 202.635,-360.589 202.635,-569.389 202.635,-569.389 202.635,-575.389 196.635,-581.389 190.635,-581.389 190.635,-581.389 12,-581.389 12,-581.389 6,-581.389 -2.84217e-14,-575.389 -2.84217e-14,-569.389 -2.84217e-14,-569.389 -2.84217e-14,-360.589 -2.84217e-14,-360.589 -2.84217e-14,-354.589 6,-348.589 12,-348.589"/>
<text text-anchor="middle" x="101.317" y="-563.389" font-family="Times,serif" font-size="14.00">OrdersController</text>
<polyline fill="none" stroke="black" points="-2.84217e-14,-556.589 202.635,-556.589 "/>
<text text-anchor="start" x="8" y="-538.589" font-family="Times,serif" font-size="14.00">_one_time_conditions_valid_86?</text>
<text text-anchor="start" x="8" y="-521.789" font-family="Times,serif" font-size="14.00">create</text>
<text text-anchor="start" x="8" y="-504.989" font-family="Times,serif" font-size="14.00">destroy</text>
<text text-anchor="start" x="8" y="-488.189" font-family="Times,serif" font-size="14.00">edit</text>
<text text-anchor="start" x="8" y="-471.389" font-family="Times,serif" font-size="14.00">index</text>
<text text-anchor="start" x="8" y="-454.589" font-family="Times,serif" font-size="14.00">new</text>
<text text-anchor="start" x="8" y="-437.789" font-family="Times,serif" font-size="14.00">show</text>
<text text-anchor="start" x="8" y="-420.989" font-family="Times,serif" font-size="14.00">update</text>
<polyline fill="none" stroke="black" points="-2.84217e-14,-414.189 202.635,-414.189 "/>
<polyline fill="none" stroke="black" points="-2.84217e-14,-390.189 202.635,-390.189 "/>
<text text-anchor="start" x="8" y="-372.189" font-family="Times,serif" font-size="14.00">_layout</text>
<text text-anchor="start" x="8" y="-355.389" font-family="Times,serif" font-size="14.00">load_parents</text>
</g>
<!-- ApplicationController&#45;&gt;OrdersController -->
<g id="edge3" class="edge"><title>ApplicationController&#45;&gt;OrdersController</title>
<path fill="none" stroke="black" d="M226.087,-334.963C218.715,-342.645 210.868,-350.823 202.837,-359.192"/>
</g>
<!-- TasksController -->
<g id="node6" class="node"><title>TasksController</title>
<path fill="none" stroke="black" d="M377.313,-371.614C377.313,-371.614 458.543,-371.614 458.543,-371.614 464.543,-371.614 470.543,-377.614 470.543,-383.614 470.543,-383.614 470.543,-558.814 470.543,-558.814 470.543,-564.814 464.543,-570.814 458.543,-570.814 458.543,-570.814 377.313,-570.814 377.313,-570.814 371.313,-570.814 365.313,-564.814 365.313,-558.814 365.313,-558.814 365.313,-383.614 365.313,-383.614 365.313,-377.614 371.313,-371.614 377.313,-371.614"/>
<text text-anchor="middle" x="417.928" y="-552.814" font-family="Times,serif" font-size="14.00">TasksController</text>
<polyline fill="none" stroke="black" points="365.313,-546.014 470.543,-546.014 "/>
<text text-anchor="start" x="373.313" y="-528.014" font-family="Times,serif" font-size="14.00">create</text>
<text text-anchor="start" x="373.313" y="-511.214" font-family="Times,serif" font-size="14.00">destroy</text>
<text text-anchor="start" x="373.313" y="-494.414" font-family="Times,serif" font-size="14.00">edit</text>
<text text-anchor="start" x="373.313" y="-477.614" font-family="Times,serif" font-size="14.00">index</text>
<text text-anchor="start" x="373.313" y="-460.814" font-family="Times,serif" font-size="14.00">new</text>
<text text-anchor="start" x="373.313" y="-444.014" font-family="Times,serif" font-size="14.00">show</text>
<text text-anchor="start" x="373.313" y="-427.214" font-family="Times,serif" font-size="14.00">update</text>
<polyline fill="none" stroke="black" points="365.313,-420.414 470.543,-420.414 "/>
<polyline fill="none" stroke="black" points="365.313,-396.414 470.543,-396.414 "/>
<text text-anchor="start" x="373.313" y="-378.414" font-family="Times,serif" font-size="14.00">_layout</text>
</g>
<!-- ApplicationController&#45;&gt;TasksController -->
<g id="edge4" class="edge"><title>ApplicationController&#45;&gt;TasksController</title>
<path fill="none" stroke="black" d="M311.918,-334.722C328.2,-355.685 347.457,-380.479 365.061,-403.145"/>
</g>
</g>
</svg>
