<?xml version="1.0" encoding="UTF-8" standalone="no"?>
<!DOCTYPE svg PUBLIC "-//W3C//DTD SVG 1.1//EN"
 "http://www.w3.org/Graphics/SVG/1.1/DTD/svg11.dtd">
<!-- Generated by graphviz version 2.30.1 (20130528.1538)
 -->
<!-- Title: controllers_diagram Pages: 1 -->
<svg width="917pt" height="703pt"
 viewBox="0.00 0.00 917.38 702.53" xmlns="http://www.w3.org/2000/svg" xmlns:xlink="http://www.w3.org/1999/xlink">
<g id="graph0" class="graph" transform="scale(1 1) rotate(0) translate(4 698.53)">
<title>controllers_diagram</title>
<polygon fill="white" stroke="white" points="-4,5 -4,-698.53 914.375,-698.53 914.375,5 -4,5"/>
<!-- _diagram_info -->
<g id="node1" class="node"><title>_diagram_info</title>
<text text-anchor="start" x="710" y="-69" font-family="Times,serif" font-size="13.00">Controllers diagram</text>
<text text-anchor="start" x="710" y="-53.4" font-family="Times,serif" font-size="13.00">Date: May 29 2013 &#45; 13:20</text>
<text text-anchor="start" x="710" y="-37.8" font-family="Times,serif" font-size="13.00">Migration version: 20130528134141</text>
<text text-anchor="start" x="710" y="-22.2" font-family="Times,serif" font-size="13.00">Generated by RailRoady 1.1.0</text>
<text text-anchor="start" x="710" y="-6.6" font-family="Times,serif" font-size="13.00">http://railroady.prestonlee.com</text>
</g>
<!-- ApplicationController -->
<g id="node2" class="node"><title>ApplicationController</title>
<path fill="none" stroke="black" d="M203.209,-295.416C203.209,-295.416 381.844,-295.416 381.844,-295.416 387.844,-295.416 393.844,-301.416 393.844,-307.416 393.844,-307.416 393.844,-381.816 393.844,-381.816 393.844,-387.816 387.844,-393.816 381.844,-393.816 381.844,-393.816 203.209,-393.816 203.209,-393.816 197.209,-393.816 191.209,-387.816 191.209,-381.816 191.209,-381.816 191.209,-307.416 191.209,-307.416 191.209,-301.416 197.209,-295.416 203.209,-295.416"/>
<text text-anchor="middle" x="292.526" y="-375.816" font-family="Times,serif" font-size="14.00">ApplicationController</text>
<polyline fill="none" stroke="black" points="191.209,-369.016 393.844,-369.016 "/>
<text text-anchor="start" x="199.209" y="-351.016" font-family="Times,serif" font-size="14.00">_one_time_conditions_valid_14?</text>
<polyline fill="none" stroke="black" points="191.209,-344.216 393.844,-344.216 "/>
<polyline fill="none" stroke="black" points="191.209,-320.216 393.844,-320.216 "/>
<text text-anchor="start" x="199.209" y="-302.216" font-family="Times,serif" font-size="14.00">_layout</text>
</g>
<!-- ClientsController -->
<g id="node3" class="node"><title>ClientsController</title>
<path fill="none" stroke="black" d="M491.739,-245.112C491.739,-245.112 580.953,-245.112 580.953,-245.112 586.953,-245.112 592.953,-251.112 592.953,-257.112 592.953,-257.112 592.953,-432.312 592.953,-432.312 592.953,-438.312 586.953,-444.312 580.953,-444.312 580.953,-444.312 491.739,-444.312 491.739,-444.312 485.739,-444.312 479.739,-438.312 479.739,-432.312 479.739,-432.312 479.739,-257.112 479.739,-257.112 479.739,-251.112 485.739,-245.112 491.739,-245.112"/>
<text text-anchor="middle" x="536.346" y="-426.312" font-family="Times,serif" font-size="14.00">ClientsController</text>
<polyline fill="none" stroke="black" points="479.739,-419.512 592.953,-419.512 "/>
<text text-anchor="start" x="487.739" y="-401.512" font-family="Times,serif" font-size="14.00">create</text>
<text text-anchor="start" x="487.739" y="-384.712" font-family="Times,serif" font-size="14.00">destroy</text>
<text text-anchor="start" x="487.739" y="-367.912" font-family="Times,serif" font-size="14.00">edit</text>
<text text-anchor="start" x="487.739" y="-351.112" font-family="Times,serif" font-size="14.00">index</text>
<text text-anchor="start" x="487.739" y="-334.312" font-family="Times,serif" font-size="14.00">new</text>
<text text-anchor="start" x="487.739" y="-317.512" font-family="Times,serif" font-size="14.00">show</text>
<text text-anchor="start" x="487.739" y="-300.712" font-family="Times,serif" font-size="14.00">update</text>
<polyline fill="none" stroke="black" points="479.739,-293.912 592.953,-293.912 "/>
<polyline fill="none" stroke="black" points="479.739,-269.912 592.953,-269.912 "/>
<text text-anchor="start" x="487.739" y="-251.912" font-family="Times,serif" font-size="14.00">_layout</text>
</g>
<!-- ApplicationController&#45;&gt;ClientsController -->
<g id="edge1" class="edge"><title>ApplicationController&#45;&gt;ClientsController</title>
<path fill="none" stroke="black" d="M394.162,-344.656C423.301,-344.668 454.029,-344.68 479.435,-344.69"/>
</g>
<!-- DocumentsController -->
<g id="node4" class="node"><title>DocumentsController</title>
<path fill="none" stroke="black" d="M253.904,-0.5C253.904,-0.5 367.215,-0.5 367.215,-0.5 373.215,-0.5 379.215,-6.5 379.215,-12.5 379.215,-12.5 379.215,-187.7 379.215,-187.7 379.215,-193.7 373.215,-199.7 367.215,-199.7 367.215,-199.7 253.904,-199.7 253.904,-199.7 247.904,-199.7 241.904,-193.7 241.904,-187.7 241.904,-187.7 241.904,-12.5 241.904,-12.5 241.904,-6.5 247.904,-0.5 253.904,-0.5"/>
<text text-anchor="middle" x="310.56" y="-181.7" font-family="Times,serif" font-size="14.00">DocumentsController</text>
<polyline fill="none" stroke="black" points="241.904,-174.9 379.215,-174.9 "/>
<text text-anchor="start" x="249.904" y="-156.9" font-family="Times,serif" font-size="14.00">create</text>
<text text-anchor="start" x="249.904" y="-140.1" font-family="Times,serif" font-size="14.00">destroy</text>
<text text-anchor="start" x="249.904" y="-123.3" font-family="Times,serif" font-size="14.00">edit</text>
<text text-anchor="start" x="249.904" y="-106.5" font-family="Times,serif" font-size="14.00">index</text>
<text text-anchor="start" x="249.904" y="-89.7" font-family="Times,serif" font-size="14.00">new</text>
<text text-anchor="start" x="249.904" y="-72.9" font-family="Times,serif" font-size="14.00">show</text>
<text text-anchor="start" x="249.904" y="-56.1" font-family="Times,serif" font-size="14.00">update</text>
<polyline fill="none" stroke="black" points="241.904,-49.3 379.215,-49.3 "/>
<polyline fill="none" stroke="black" points="241.904,-25.3 379.215,-25.3 "/>
<text text-anchor="start" x="249.904" y="-7.3" font-family="Times,serif" font-size="14.00">_layout</text>
</g>
<!-- ApplicationController&#45;&gt;DocumentsController -->
<g id="edge2" class="edge"><title>ApplicationController&#45;&gt;DocumentsController</title>
<path fill="none" stroke="black" d="M296.175,-295.134C298.198,-267.713 300.787,-232.613 303.209,-199.766"/>
</g>
<!-- MaterialsController -->
<g id="node5" class="node"><title>MaterialsController</title>
<path fill="none" stroke="black" d="M12,-408.24C12,-408.24 190.635,-408.24 190.635,-408.24 196.635,-408.24 202.635,-414.24 202.635,-420.24 202.635,-420.24 202.635,-629.04 202.635,-629.04 202.635,-635.04 196.635,-641.04 190.635,-641.04 190.635,-641.04 12,-641.04 12,-641.04 6,-641.04 0,-635.04 0,-629.04 0,-629.04 0,-420.24 0,-420.24 0,-414.24 6,-408.24 12,-408.24"/>
<text text-anchor="middle" x="101.317" y="-623.04" font-family="Times,serif" font-size="14.00">MaterialsController</text>
<polyline fill="none" stroke="black" points="0,-616.24 202.635,-616.24 "/>
<text text-anchor="start" x="8" y="-598.24" font-family="Times,serif" font-size="14.00">_one_time_conditions_valid_60?</text>
<text text-anchor="start" x="8" y="-581.44" font-family="Times,serif" font-size="14.00">create</text>
<text text-anchor="start" x="8" y="-564.64" font-family="Times,serif" font-size="14.00">destroy</text>
<text text-anchor="start" x="8" y="-547.84" font-family="Times,serif" font-size="14.00">edit</text>
<text text-anchor="start" x="8" y="-531.04" font-family="Times,serif" font-size="14.00">index</text>
<text text-anchor="start" x="8" y="-514.24" font-family="Times,serif" font-size="14.00">new</text>
<text text-anchor="start" x="8" y="-497.44" font-family="Times,serif" font-size="14.00">show</text>
<text text-anchor="start" x="8" y="-480.64" font-family="Times,serif" font-size="14.00">update</text>
<polyline fill="none" stroke="black" points="0,-473.84 202.635,-473.84 "/>
<polyline fill="none" stroke="black" points="0,-449.84 202.635,-449.84 "/>
<text text-anchor="start" x="8" y="-431.84" font-family="Times,serif" font-size="14.00">_layout</text>
<text text-anchor="start" x="8" y="-415.04" font-family="Times,serif" font-size="14.00">find_material</text>
</g>
<!-- ApplicationController&#45;&gt;MaterialsController -->
<g id="edge3" class="edge"><title>ApplicationController&#45;&gt;MaterialsController</title>
<path fill="none" stroke="black" d="M240.025,-394.046C228.416,-404.976 215.735,-416.915 202.91,-428.99"/>
</g>
<!-- OrdersController -->
<g id="node6" class="node"><title>OrdersController</title>
<path fill="none" stroke="black" d="M450.147,-461.23C450.147,-461.23 635.782,-461.23 635.782,-461.23 641.782,-461.23 647.782,-467.23 647.782,-473.23 647.782,-473.23 647.782,-682.03 647.782,-682.03 647.782,-688.03 641.782,-694.03 635.782,-694.03 635.782,-694.03 450.147,-694.03 450.147,-694.03 444.147,-694.03 438.147,-688.03 438.147,-682.03 438.147,-682.03 438.147,-473.23 438.147,-473.23 438.147,-467.23 444.147,-461.23 450.147,-461.23"/>
<text text-anchor="middle" x="542.964" y="-676.03" font-family="Times,serif" font-size="14.00">OrdersController</text>
<polyline fill="none" stroke="black" points="438.147,-669.23 647.782,-669.23 "/>
<text text-anchor="start" x="446.147" y="-651.23" font-family="Times,serif" font-size="14.00">_one_time_conditions_valid_102?</text>
<text text-anchor="start" x="446.147" y="-634.43" font-family="Times,serif" font-size="14.00">create</text>
<text text-anchor="start" x="446.147" y="-617.63" font-family="Times,serif" font-size="14.00">destroy</text>
<text text-anchor="start" x="446.147" y="-600.83" font-family="Times,serif" font-size="14.00">edit</text>
<text text-anchor="start" x="446.147" y="-584.03" font-family="Times,serif" font-size="14.00">index</text>
<text text-anchor="start" x="446.147" y="-567.23" font-family="Times,serif" font-size="14.00">new</text>
<text text-anchor="start" x="446.147" y="-550.43" font-family="Times,serif" font-size="14.00">show</text>
<text text-anchor="start" x="446.147" y="-533.63" font-family="Times,serif" font-size="14.00">update</text>
<polyline fill="none" stroke="black" points="438.147,-526.83 647.782,-526.83 "/>
<polyline fill="none" stroke="black" points="438.147,-502.83 647.782,-502.83 "/>
<text text-anchor="start" x="446.147" y="-484.83" font-family="Times,serif" font-size="14.00">_layout</text>
<text text-anchor="start" x="446.147" y="-468.03" font-family="Times,serif" font-size="14.00">load_parents</text>
</g>
<!-- ApplicationController&#45;&gt;OrdersController -->
<g id="edge4" class="edge"><title>ApplicationController&#45;&gt;OrdersController</title>
<path fill="none" stroke="black" d="M345.638,-394.032C372.559,-419.081 406.227,-450.405 438.088,-480.05"/>
</g>
<!-- SuppliersController -->
<g id="node7" class="node"><title>SuppliersController</title>
<path fill="none" stroke="black" d="M259.372,-489.561C259.372,-489.561 361.807,-489.561 361.807,-489.561 367.807,-489.561 373.807,-495.561 373.807,-501.561 373.807,-501.561 373.807,-676.761 373.807,-676.761 373.807,-682.761 367.807,-688.761 361.807,-688.761 361.807,-688.761 259.372,-688.761 259.372,-688.761 253.372,-688.761 247.372,-682.761 247.372,-676.761 247.372,-676.761 247.372,-501.561 247.372,-501.561 247.372,-495.561 253.372,-489.561 259.372,-489.561"/>
<text text-anchor="middle" x="310.589" y="-670.761" font-family="Times,serif" font-size="14.00">SuppliersController</text>
<polyline fill="none" stroke="black" points="247.372,-663.961 373.807,-663.961 "/>
<text text-anchor="start" x="255.372" y="-645.961" font-family="Times,serif" font-size="14.00">create</text>
<text text-anchor="start" x="255.372" y="-629.161" font-family="Times,serif" font-size="14.00">destroy</text>
<text text-anchor="start" x="255.372" y="-612.361" font-family="Times,serif" font-size="14.00">edit</text>
<text text-anchor="start" x="255.372" y="-595.561" font-family="Times,serif" font-size="14.00">index</text>
<text text-anchor="start" x="255.372" y="-578.761" font-family="Times,serif" font-size="14.00">new</text>
<text text-anchor="start" x="255.372" y="-561.961" font-family="Times,serif" font-size="14.00">show</text>
<text text-anchor="start" x="255.372" y="-545.161" font-family="Times,serif" font-size="14.00">update</text>
<polyline fill="none" stroke="black" points="247.372,-538.361 373.807,-538.361 "/>
<polyline fill="none" stroke="black" points="247.372,-514.361 373.807,-514.361 "/>
<text text-anchor="start" x="255.372" y="-496.361" font-family="Times,serif" font-size="14.00">_layout</text>
</g>
<!-- ApplicationController&#45;&gt;SuppliersController -->
<g id="edge5" class="edge"><title>ApplicationController&#45;&gt;SuppliersController</title>
<path fill="none" stroke="black" d="M296.182,-394.103C298.207,-421.527 300.8,-456.632 303.227,-489.483"/>
</g>
<!-- TasksController -->
<g id="node8" class="node"><title>TasksController</title>
<path fill="none" stroke="black" d="M60.6863,-65.091C60.6863,-65.091 141.916,-65.091 141.916,-65.091 147.916,-65.091 153.916,-71.091 153.916,-77.091 153.916,-77.091 153.916,-252.291 153.916,-252.291 153.916,-258.291 147.916,-264.291 141.916,-264.291 141.916,-264.291 60.6863,-264.291 60.6863,-264.291 54.6863,-264.291 48.6863,-258.291 48.6863,-252.291 48.6863,-252.291 48.6863,-77.091 48.6863,-77.091 48.6863,-71.091 54.6863,-65.091 60.6863,-65.091"/>
<text text-anchor="middle" x="101.301" y="-246.291" font-family="Times,serif" font-size="14.00">TasksController</text>
<polyline fill="none" stroke="black" points="48.6863,-239.491 153.916,-239.491 "/>
<text text-anchor="start" x="56.6863" y="-221.491" font-family="Times,serif" font-size="14.00">create</text>
<text text-anchor="start" x="56.6863" y="-204.691" font-family="Times,serif" font-size="14.00">destroy</text>
<text text-anchor="start" x="56.6863" y="-187.891" font-family="Times,serif" font-size="14.00">edit</text>
<text text-anchor="start" x="56.6863" y="-171.091" font-family="Times,serif" font-size="14.00">index</text>
<text text-anchor="start" x="56.6863" y="-154.291" font-family="Times,serif" font-size="14.00">new</text>
<text text-anchor="start" x="56.6863" y="-137.491" font-family="Times,serif" font-size="14.00">show</text>
<text text-anchor="start" x="56.6863" y="-120.691" font-family="Times,serif" font-size="14.00">update</text>
<polyline fill="none" stroke="black" points="48.6863,-113.891 153.916,-113.891 "/>
<polyline fill="none" stroke="black" points="48.6863,-89.891 153.916,-89.891 "/>
<text text-anchor="start" x="56.6863" y="-71.891" font-family="Times,serif" font-size="14.00">_layout</text>
</g>
<!-- ApplicationController&#45;&gt;TasksController -->
<g id="edge6" class="edge"><title>ApplicationController&#45;&gt;TasksController</title>
<path fill="none" stroke="black" d="M240.02,-295.212C213.263,-270.037 180.809,-239.501 154.022,-214.296"/>
</g>
<!-- VehiclesController -->
<g id="node9" class="node"><title>VehiclesController</title>
<path fill="none" stroke="black" d="M494.468,-12.1466C494.468,-12.1466 591.441,-12.1466 591.441,-12.1466 597.441,-12.1466 603.441,-18.1466 603.441,-24.1466 603.441,-24.1466 603.441,-199.347 603.441,-199.347 603.441,-205.347 597.441,-211.347 591.441,-211.347 591.441,-211.347 494.468,-211.347 494.468,-211.347 488.468,-211.347 482.468,-205.347 482.468,-199.347 482.468,-199.347 482.468,-24.1466 482.468,-24.1466 482.468,-18.1466 488.468,-12.1466 494.468,-12.1466"/>
<text text-anchor="middle" x="542.954" y="-193.347" font-family="Times,serif" font-size="14.00">VehiclesController</text>
<polyline fill="none" stroke="black" points="482.468,-186.547 603.441,-186.547 "/>
<text text-anchor="start" x="490.468" y="-168.547" font-family="Times,serif" font-size="14.00">create</text>
<text text-anchor="start" x="490.468" y="-151.747" font-family="Times,serif" font-size="14.00">destroy</text>
<text text-anchor="start" x="490.468" y="-134.947" font-family="Times,serif" font-size="14.00">edit</text>
<text text-anchor="start" x="490.468" y="-118.147" font-family="Times,serif" font-size="14.00">index</text>
<text text-anchor="start" x="490.468" y="-101.347" font-family="Times,serif" font-size="14.00">new</text>
<text text-anchor="start" x="490.468" y="-84.5466" font-family="Times,serif" font-size="14.00">show</text>
<text text-anchor="start" x="490.468" y="-67.7466" font-family="Times,serif" font-size="14.00">update</text>
<polyline fill="none" stroke="black" points="482.468,-60.9466 603.441,-60.9466 "/>
<polyline fill="none" stroke="black" points="482.468,-36.9466 603.441,-36.9466 "/>
<text text-anchor="start" x="490.468" y="-18.9466" font-family="Times,serif" font-size="14.00">_layout</text>
</g>
<!-- ApplicationController&#45;&gt;VehiclesController -->
<g id="edge7" class="edge"><title>ApplicationController&#45;&gt;VehiclesController</title>
<path fill="none" stroke="black" d="M345.636,-295.23C385.693,-257.981 440.686,-206.844 482.442,-168.016"/>
</g>
</g>
</svg>
