<?xml version="1.0" encoding="UTF-8" standalone="no"?>
<!DOCTYPE svg PUBLIC "-//W3C//DTD SVG 1.1//EN"
 "http://www.w3.org/Graphics/SVG/1.1/DTD/svg11.dtd">
<!-- Generated by graphviz version 2.30.1 (20130528.1538)
 -->
<!-- Title: models_diagram Pages: 1 -->
<svg width="1084pt" height="740pt"
 viewBox="0.00 0.00 1084.00 740.00" xmlns="http://www.w3.org/2000/svg" xmlns:xlink="http://www.w3.org/1999/xlink">
<g id="graph0" class="graph" transform="scale(1 1) rotate(0) translate(4 736)">
<title>models_diagram</title>
<polygon fill="white" stroke="white" points="-4,5 -4,-736 1081,-736 1081,5 -4,5"/>
<!-- _diagram_info -->
<g id="node1" class="node"><title>_diagram_info</title>
<text text-anchor="start" x="7.31226" y="-682" font-family="Times,serif" font-size="13.00">Models diagram</text>
<text text-anchor="start" x="7.31226" y="-666.4" font-family="Times,serif" font-size="13.00">Date: May 29 2013 &#45; 13:20</text>
<text text-anchor="start" x="7.31226" y="-650.8" font-family="Times,serif" font-size="13.00">Migration version: 20130528134141</text>
<text text-anchor="start" x="7.31226" y="-635.2" font-family="Times,serif" font-size="13.00">Generated by RailRoady 1.1.0</text>
<text text-anchor="start" x="7.31226" y="-619.6" font-family="Times,serif" font-size="13.00">http://railroady.prestonlee.com</text>
</g>
<!-- Client -->
<g id="node2" class="node"><title>Client</title>
<path fill="none" stroke="black" d="M236.495,-580.8C236.495,-580.8 345.505,-580.8 345.505,-580.8 351.505,-580.8 357.505,-586.8 357.505,-592.8 357.505,-592.8 357.505,-719.2 357.505,-719.2 357.505,-725.2 351.505,-731.2 345.505,-731.2 345.505,-731.2 236.495,-731.2 236.495,-731.2 230.495,-731.2 224.495,-725.2 224.495,-719.2 224.495,-719.2 224.495,-592.8 224.495,-592.8 224.495,-586.8 230.495,-580.8 236.495,-580.8"/>
<text text-anchor="middle" x="291" y="-713.2" font-family="Times,serif" font-size="14.00">Client</text>
<polyline fill="none" stroke="black" points="224.495,-706.4 357.505,-706.4 "/>
<text text-anchor="start" x="232.495" y="-688.4" font-family="Times,serif" font-size="14.00">id :integer</text>
<text text-anchor="start" x="232.495" y="-671.6" font-family="Times,serif" font-size="14.00">name :string</text>
<text text-anchor="start" x="232.495" y="-654.8" font-family="Times,serif" font-size="14.00">email :string</text>
<text text-anchor="start" x="232.495" y="-638" font-family="Times,serif" font-size="14.00">phone :string</text>
<text text-anchor="start" x="232.495" y="-621.2" font-family="Times,serif" font-size="14.00">details :text</text>
<text text-anchor="start" x="232.495" y="-604.4" font-family="Times,serif" font-size="14.00">created_at :datetime</text>
<text text-anchor="start" x="232.495" y="-587.6" font-family="Times,serif" font-size="14.00">updated_at :datetime</text>
</g>
<!-- Order -->
<g id="node5" class="node"><title>Order</title>
<path fill="none" stroke="black" d="M311.495,-393.2C311.495,-393.2 420.505,-393.2 420.505,-393.2 426.505,-393.2 432.505,-399.2 432.505,-405.2 432.505,-405.2 432.505,-514.8 432.505,-514.8 432.505,-520.8 426.505,-526.8 420.505,-526.8 420.505,-526.8 311.495,-526.8 311.495,-526.8 305.495,-526.8 299.495,-520.8 299.495,-514.8 299.495,-514.8 299.495,-405.2 299.495,-405.2 299.495,-399.2 305.495,-393.2 311.495,-393.2"/>
<text text-anchor="middle" x="366" y="-508.8" font-family="Times,serif" font-size="14.00">Order</text>
<polyline fill="none" stroke="black" points="299.495,-502 432.505,-502 "/>
<text text-anchor="start" x="307.495" y="-484" font-family="Times,serif" font-size="14.00">id :integer</text>
<text text-anchor="start" x="307.495" y="-467.2" font-family="Times,serif" font-size="14.00">started_at :date</text>
<text text-anchor="start" x="307.495" y="-450.4" font-family="Times,serif" font-size="14.00">stage :string</text>
<text text-anchor="start" x="307.495" y="-433.6" font-family="Times,serif" font-size="14.00">created_at :datetime</text>
<text text-anchor="start" x="307.495" y="-416.8" font-family="Times,serif" font-size="14.00">updated_at :datetime</text>
<text text-anchor="start" x="307.495" y="-400" font-family="Times,serif" font-size="14.00">client_id :integer</text>
</g>
<!-- Client&#45;&gt;Order -->
<g id="edge1" class="edge"><title>Client&#45;&gt;Order</title>
<path fill="none" stroke="#9fd0a3" d="M322.679,-573.056C327.366,-560.933 332.177,-548.489 336.81,-536.506"/>
<ellipse fill="none" stroke="#9fd0a3" cx="321.225" cy="-576.818" rx="4.00001" ry="4.00001"/>
<polygon fill="#9fd0a3" stroke="#9fd0a3" points="336.875,-536.337 344.678,-528.632 338.678,-531.673 340.481,-527.01 340.481,-527.01 340.481,-527.01 338.678,-531.673 336.284,-525.387 336.875,-536.337 336.875,-536.337"/>
</g>
<!-- Document -->
<g id="node3" class="node"><title>Document</title>
<path fill="none" stroke="black" d="M387.495,-589.2C387.495,-589.2 496.505,-589.2 496.505,-589.2 502.505,-589.2 508.505,-595.2 508.505,-601.2 508.505,-601.2 508.505,-710.8 508.505,-710.8 508.505,-716.8 502.505,-722.8 496.505,-722.8 496.505,-722.8 387.495,-722.8 387.495,-722.8 381.495,-722.8 375.495,-716.8 375.495,-710.8 375.495,-710.8 375.495,-601.2 375.495,-601.2 375.495,-595.2 381.495,-589.2 387.495,-589.2"/>
<text text-anchor="middle" x="442" y="-704.8" font-family="Times,serif" font-size="14.00">Document</text>
<polyline fill="none" stroke="black" points="375.495,-698 508.505,-698 "/>
<text text-anchor="start" x="383.495" y="-680" font-family="Times,serif" font-size="14.00">id :integer</text>
<text text-anchor="start" x="383.495" y="-663.2" font-family="Times,serif" font-size="14.00">name :string</text>
<text text-anchor="start" x="383.495" y="-646.4" font-family="Times,serif" font-size="14.00">code :string</text>
<text text-anchor="start" x="383.495" y="-629.6" font-family="Times,serif" font-size="14.00">template :text</text>
<text text-anchor="start" x="383.495" y="-612.8" font-family="Times,serif" font-size="14.00">created_at :datetime</text>
<text text-anchor="start" x="383.495" y="-596" font-family="Times,serif" font-size="14.00">updated_at :datetime</text>
</g>
<!-- Document&#45;&gt;Order -->
<g id="edge2" class="edge"><title>Document&#45;&gt;Order</title>
<path fill="none" stroke="#c6ee9b" d="M412.442,-579.549C406.934,-565.488 401.176,-550.791 395.664,-536.722"/>
<polygon fill="#c6ee9b" stroke="#c6ee9b" points="412.516,-579.739 411.974,-590.691 414.34,-584.394 416.164,-589.05 416.164,-589.05 416.164,-589.05 414.34,-584.394 420.354,-587.408 412.516,-579.739 412.516,-579.739"/>
<polygon fill="#c6ee9b" stroke="#c6ee9b" points="395.541,-536.408 396.084,-525.456 393.718,-531.753 391.894,-527.097 391.894,-527.097 391.894,-527.097 393.718,-531.753 387.704,-528.739 395.541,-536.408 395.541,-536.408"/>
</g>
<!-- Material -->
<g id="node4" class="node"><title>Material</title>
<path fill="none" stroke="black" d="M653.495,-410C653.495,-410 762.505,-410 762.505,-410 768.505,-410 774.505,-416 774.505,-422 774.505,-422 774.505,-498 774.505,-498 774.505,-504 768.505,-510 762.505,-510 762.505,-510 653.495,-510 653.495,-510 647.495,-510 641.495,-504 641.495,-498 641.495,-498 641.495,-422 641.495,-422 641.495,-416 647.495,-410 653.495,-410"/>
<text text-anchor="middle" x="708" y="-492" font-family="Times,serif" font-size="14.00">Material</text>
<polyline fill="none" stroke="black" points="641.495,-485.2 774.505,-485.2 "/>
<text text-anchor="start" x="649.495" y="-467.2" font-family="Times,serif" font-size="14.00">id :integer</text>
<text text-anchor="start" x="649.495" y="-450.4" font-family="Times,serif" font-size="14.00">measurement :string</text>
<text text-anchor="start" x="649.495" y="-433.6" font-family="Times,serif" font-size="14.00">created_at :datetime</text>
<text text-anchor="start" x="649.495" y="-416.8" font-family="Times,serif" font-size="14.00">updated_at :datetime</text>
</g>
<!-- OrderTask -->
<g id="node6" class="node"><title>OrderTask</title>
<path fill="none" stroke="black" d="M326.495,-1.2C326.495,-1.2 435.505,-1.2 435.505,-1.2 441.505,-1.2 447.505,-7.2 447.505,-13.2 447.505,-13.2 447.505,-122.8 447.505,-122.8 447.505,-128.8 441.505,-134.8 435.505,-134.8 435.505,-134.8 326.495,-134.8 326.495,-134.8 320.495,-134.8 314.495,-128.8 314.495,-122.8 314.495,-122.8 314.495,-13.2 314.495,-13.2 314.495,-7.2 320.495,-1.2 326.495,-1.2"/>
<text text-anchor="middle" x="381" y="-116.8" font-family="Times,serif" font-size="14.00">OrderTask</text>
<polyline fill="none" stroke="black" points="314.495,-110 447.505,-110 "/>
<text text-anchor="start" x="322.495" y="-92" font-family="Times,serif" font-size="14.00">id :integer</text>
<text text-anchor="start" x="322.495" y="-75.2" font-family="Times,serif" font-size="14.00">order_id :integer</text>
<text text-anchor="start" x="322.495" y="-58.4" font-family="Times,serif" font-size="14.00">task_id :integer</text>
<text text-anchor="start" x="322.495" y="-41.6" font-family="Times,serif" font-size="14.00">amount :float</text>
<text text-anchor="start" x="322.495" y="-24.8" font-family="Times,serif" font-size="14.00">created_at :datetime</text>
<text text-anchor="start" x="322.495" y="-8" font-family="Times,serif" font-size="14.00">updated_at :datetime</text>
</g>
<!-- Order&#45;&gt;OrderTask -->
<g id="edge4" class="edge"><title>Order&#45;&gt;OrderTask</title>
<path fill="none" stroke="#f3d593" d="M367.247,-385.13C368.423,-327.147 370.532,-244.398 374,-172 374.417,-163.285 374.929,-154.16 375.484,-145.096"/>
<ellipse fill="none" stroke="#f3d593" cx="367.168" cy="-389.144" rx="4" ry="4"/>
<polygon fill="#f3d593" stroke="#f3d593" points="375.497,-144.894 380.618,-135.197 375.812,-139.904 376.127,-134.914 376.127,-134.914 376.127,-134.914 375.812,-139.904 371.636,-134.63 375.497,-144.894 375.497,-144.894"/>
</g>
<!-- Task -->
<g id="node10" class="node"><title>Task</title>
<path fill="none" stroke="black" d="M394.719,-172.4C394.719,-172.4 519.281,-172.4 519.281,-172.4 525.281,-172.4 531.281,-178.4 531.281,-184.4 531.281,-184.4 531.281,-327.6 531.281,-327.6 531.281,-333.6 525.281,-339.6 519.281,-339.6 519.281,-339.6 394.719,-339.6 394.719,-339.6 388.719,-339.6 382.719,-333.6 382.719,-327.6 382.719,-327.6 382.719,-184.4 382.719,-184.4 382.719,-178.4 388.719,-172.4 394.719,-172.4"/>
<text text-anchor="middle" x="457" y="-321.6" font-family="Times,serif" font-size="14.00">Task</text>
<polyline fill="none" stroke="black" points="382.719,-314.8 531.281,-314.8 "/>
<text text-anchor="start" x="390.719" y="-296.8" font-family="Times,serif" font-size="14.00">id :integer</text>
<text text-anchor="start" x="390.719" y="-280" font-family="Times,serif" font-size="14.00">name :string</text>
<text text-anchor="start" x="390.719" y="-263.2" font-family="Times,serif" font-size="14.00">price :decimal</text>
<text text-anchor="start" x="390.719" y="-246.4" font-family="Times,serif" font-size="14.00">execution_time :integer</text>
<text text-anchor="start" x="390.719" y="-229.6" font-family="Times,serif" font-size="14.00">priority :integer</text>
<text text-anchor="start" x="390.719" y="-212.8" font-family="Times,serif" font-size="14.00">measurement :string</text>
<text text-anchor="start" x="390.719" y="-196" font-family="Times,serif" font-size="14.00">created_at :datetime</text>
<text text-anchor="start" x="390.719" y="-179.2" font-family="Times,serif" font-size="14.00">updated_at :datetime</text>
</g>
<!-- Order&#45;&gt;Task -->
<g id="edge5" class="edge"><title>Order&#45;&gt;Task</title>
<path fill="none" stroke="#151147" d="M399.869,-383.818C404.976,-372.482 410.292,-360.681 415.536,-349.04"/>
<polygon fill="#151147" stroke="#151147" points="399.778,-384.02 391.568,-391.289 397.725,-388.578 395.671,-393.137 395.671,-393.137 395.671,-393.137 397.725,-388.578 399.774,-394.986 399.778,-384.02 399.778,-384.02"/>
<polygon fill="#151147" stroke="#151147" points="415.614,-348.868 423.824,-341.599 417.667,-344.31 419.721,-339.751 419.721,-339.751 419.721,-339.751 417.667,-344.31 415.618,-337.902 415.614,-348.868 415.614,-348.868"/>
</g>
<!-- Resource -->
<g id="node7" class="node"><title>Resource</title>
<path fill="none" stroke="black" d="M484.933,-376.4C484.933,-376.4 611.067,-376.4 611.067,-376.4 617.067,-376.4 623.067,-382.4 623.067,-388.4 623.067,-388.4 623.067,-531.6 623.067,-531.6 623.067,-537.6 617.067,-543.6 611.067,-543.6 611.067,-543.6 484.933,-543.6 484.933,-543.6 478.933,-543.6 472.933,-537.6 472.933,-531.6 472.933,-531.6 472.933,-388.4 472.933,-388.4 472.933,-382.4 478.933,-376.4 484.933,-376.4"/>
<text text-anchor="middle" x="548" y="-525.6" font-family="Times,serif" font-size="14.00">Resource</text>
<polyline fill="none" stroke="black" points="472.933,-518.8 623.067,-518.8 "/>
<text text-anchor="start" x="480.933" y="-500.8" font-family="Times,serif" font-size="14.00">id :integer</text>
<text text-anchor="start" x="480.933" y="-484" font-family="Times,serif" font-size="14.00">name :string</text>
<text text-anchor="start" x="480.933" y="-467.2" font-family="Times,serif" font-size="14.00">code :string</text>
<text text-anchor="start" x="480.933" y="-450.4" font-family="Times,serif" font-size="14.00">price :decimal</text>
<text text-anchor="start" x="480.933" y="-433.6" font-family="Times,serif" font-size="14.00">resoursable_id :integer</text>
<text text-anchor="start" x="480.933" y="-416.8" font-family="Times,serif" font-size="14.00">resoursable_type :string</text>
<text text-anchor="start" x="480.933" y="-400" font-family="Times,serif" font-size="14.00">created_at :datetime</text>
<text text-anchor="start" x="480.933" y="-383.2" font-family="Times,serif" font-size="14.00">updated_at :datetime</text>
</g>
<!-- ResourceInTask -->
<g id="node8" class="node"><title>ResourceInTask</title>
<path fill="none" stroke="black" d="M490.495,-1.2C490.495,-1.2 599.505,-1.2 599.505,-1.2 605.505,-1.2 611.505,-7.2 611.505,-13.2 611.505,-13.2 611.505,-122.8 611.505,-122.8 611.505,-128.8 605.505,-134.8 599.505,-134.8 599.505,-134.8 490.495,-134.8 490.495,-134.8 484.495,-134.8 478.495,-128.8 478.495,-122.8 478.495,-122.8 478.495,-13.2 478.495,-13.2 478.495,-7.2 484.495,-1.2 490.495,-1.2"/>
<text text-anchor="middle" x="545" y="-116.8" font-family="Times,serif" font-size="14.00">ResourceInTask</text>
<polyline fill="none" stroke="black" points="478.495,-110 611.505,-110 "/>
<text text-anchor="start" x="486.495" y="-92" font-family="Times,serif" font-size="14.00">id :integer</text>
<text text-anchor="start" x="486.495" y="-75.2" font-family="Times,serif" font-size="14.00">task_id :integer</text>
<text text-anchor="start" x="486.495" y="-58.4" font-family="Times,serif" font-size="14.00">resource_id :integer</text>
<text text-anchor="start" x="486.495" y="-41.6" font-family="Times,serif" font-size="14.00">amount :float</text>
<text text-anchor="start" x="486.495" y="-24.8" font-family="Times,serif" font-size="14.00">created_at :datetime</text>
<text text-anchor="start" x="486.495" y="-8" font-family="Times,serif" font-size="14.00">updated_at :datetime</text>
</g>
<!-- Resource&#45;&gt;ResourceInTask -->
<g id="edge6" class="edge"><title>Resource&#45;&gt;ResourceInTask</title>
<path fill="none" stroke="#72114b" d="M547.301,-368.164C546.78,-300.45 546.077,-209.016 545.586,-145.121"/>
<ellipse fill="none" stroke="#72114b" cx="547.333" cy="-372.291" rx="4" ry="4"/>
<polygon fill="#72114b" stroke="#72114b" points="545.586,-145.11 550.008,-135.075 545.547,-140.11 545.509,-135.11 545.509,-135.11 545.509,-135.11 545.547,-140.11 541.009,-135.145 545.586,-145.11 545.586,-145.11"/>
</g>
<!-- Resource&#45;&gt;Task -->
<g id="edge7" class="edge"><title>Resource&#45;&gt;Task</title>
<path fill="none" stroke="#392ac9" d="M506.613,-367.129C503.901,-361.11 501.17,-355.047 498.458,-349.027"/>
<polygon fill="#392ac9" stroke="#392ac9" points="506.617,-367.138 506.621,-378.104 508.671,-371.697 510.724,-376.256 510.724,-376.256 510.724,-376.256 508.671,-371.697 514.827,-374.408 506.617,-367.138 506.617,-367.138"/>
<polygon fill="#392ac9" stroke="#392ac9" points="498.325,-348.733 498.321,-337.767 496.272,-344.174 494.218,-339.615 494.218,-339.615 494.218,-339.615 496.272,-344.174 490.115,-341.464 498.325,-348.733 498.325,-348.733"/>
</g>
<!-- Supplier -->
<g id="node9" class="node"><title>Supplier</title>
<path fill="none" stroke="black" d="M804.495,-410C804.495,-410 913.505,-410 913.505,-410 919.505,-410 925.505,-416 925.505,-422 925.505,-422 925.505,-498 925.505,-498 925.505,-504 919.505,-510 913.505,-510 913.505,-510 804.495,-510 804.495,-510 798.495,-510 792.495,-504 792.495,-498 792.495,-498 792.495,-422 792.495,-422 792.495,-416 798.495,-410 804.495,-410"/>
<text text-anchor="middle" x="859" y="-492" font-family="Times,serif" font-size="14.00">Supplier</text>
<polyline fill="none" stroke="black" points="792.495,-485.2 925.505,-485.2 "/>
<text text-anchor="start" x="800.495" y="-467.2" font-family="Times,serif" font-size="14.00">id :integer</text>
<text text-anchor="start" x="800.495" y="-450.4" font-family="Times,serif" font-size="14.00">qualification :integer</text>
<text text-anchor="start" x="800.495" y="-433.6" font-family="Times,serif" font-size="14.00">created_at :datetime</text>
<text text-anchor="start" x="800.495" y="-416.8" font-family="Times,serif" font-size="14.00">updated_at :datetime</text>
</g>
<!-- Task&#45;&gt;OrderTask -->
<g id="edge9" class="edge"><title>Task&#45;&gt;OrderTask</title>
<path fill="none" stroke="#2240fc" d="M420.097,-164.684C417.344,-157.948 414.585,-151.194 411.875,-144.562"/>
<ellipse fill="none" stroke="#2240fc" cx="421.71" cy="-168.632" rx="4.00001" ry="4.00001"/>
<polygon fill="#2240fc" stroke="#2240fc" points="411.73,-144.207 412.113,-133.248 409.839,-139.578 407.947,-134.95 407.947,-134.95 407.947,-134.95 409.839,-139.578 403.782,-136.652 411.73,-144.207 411.73,-144.207"/>
</g>
<!-- Task&#45;&gt;ResourceInTask -->
<g id="edge10" class="edge"><title>Task&#45;&gt;ResourceInTask</title>
<path fill="none" stroke="#c325f6" d="M499.591,-164.979C502.883,-158.02 506.186,-151.038 509.426,-144.19"/>
<ellipse fill="none" stroke="#c325f6" cx="497.821" cy="-168.719" rx="4.00002" ry="4.00002"/>
<polygon fill="#c325f6" stroke="#c325f6" points="509.521,-143.989 517.866,-136.874 511.66,-139.47 513.798,-134.95 513.798,-134.95 513.798,-134.95 511.66,-139.47 509.73,-133.025 509.521,-143.989 509.521,-143.989"/>
</g>
<!-- Vehicle -->
<g id="node11" class="node"><title>Vehicle</title>
<path fill="none" stroke="black" d="M955.495,-418.4C955.495,-418.4 1064.51,-418.4 1064.51,-418.4 1070.51,-418.4 1076.51,-424.4 1076.51,-430.4 1076.51,-430.4 1076.51,-489.6 1076.51,-489.6 1076.51,-495.6 1070.51,-501.6 1064.51,-501.6 1064.51,-501.6 955.495,-501.6 955.495,-501.6 949.495,-501.6 943.495,-495.6 943.495,-489.6 943.495,-489.6 943.495,-430.4 943.495,-430.4 943.495,-424.4 949.495,-418.4 955.495,-418.4"/>
<text text-anchor="middle" x="1010" y="-483.6" font-family="Times,serif" font-size="14.00">Vehicle</text>
<polyline fill="none" stroke="black" points="943.495,-476.8 1076.51,-476.8 "/>
<text text-anchor="start" x="951.495" y="-458.8" font-family="Times,serif" font-size="14.00">id :integer</text>
<text text-anchor="start" x="951.495" y="-442" font-family="Times,serif" font-size="14.00">created_at :datetime</text>
<text text-anchor="start" x="951.495" y="-425.2" font-family="Times,serif" font-size="14.00">updated_at :datetime</text>
</g>
<!-- Resoursable::Resoursable -->
<g id="node12" class="node"><title>Resoursable::Resoursable</title>
<ellipse fill="none" stroke="black" cx="859" cy="-656" rx="110.205" ry="18"/>
<text text-anchor="middle" x="859" y="-650.4" font-family="Times,serif" font-size="14.00">Resoursable::Resoursable</text>
</g>
<!-- Resoursable::Resoursable&#45;&gt;Material -->
<g id="edge3" class="edge"><title>Resoursable::Resoursable&#45;&gt;Material</title>
<path fill="none" stroke="black" d="M845.864,-638.123C823.908,-609.914 778.952,-552.157 746.331,-510.246"/>
</g>
<!-- Resoursable::Resoursable&#45;&gt;Supplier -->
<g id="edge8" class="edge"><title>Resoursable::Resoursable&#45;&gt;Supplier</title>
<path fill="none" stroke="black" d="M859,-637.784C859,-609.408 859,-551.804 859,-510.044"/>
</g>
<!-- Resoursable::Resoursable&#45;&gt;Vehicle -->
<g id="edge11" class="edge"><title>Resoursable::Resoursable&#45;&gt;Vehicle</title>
<path fill="none" stroke="black" d="M872.136,-638.123C895.599,-607.978 945.327,-544.09 978.199,-501.856"/>
</g>
</g>
</svg>
