<?xml version="1.0" encoding="UTF-8" standalone="no"?>
<!DOCTYPE svg PUBLIC "-//W3C//DTD SVG 1.1//EN"
 "http://www.w3.org/Graphics/SVG/1.1/DTD/svg11.dtd">
<!-- Generated by graphviz version 2.30.1 (20130528.1538)
 -->
<!-- Title: models_diagram Pages: 1 -->
<svg width="731pt" height="310pt"
 viewBox="0.00 0.00 731.00 310.00" xmlns="http://www.w3.org/2000/svg" xmlns:xlink="http://www.w3.org/1999/xlink">
<g id="graph0" class="graph" transform="scale(1 1) rotate(0) translate(4 306)">
<title>models_diagram</title>
<polygon fill="white" stroke="white" points="-4,5 -4,-306 728,-306 728,5 -4,5"/>
<!-- _diagram_info -->
<g id="node1" class="node"><title>_diagram_info</title>
<text text-anchor="start" x="7.31226" y="-285" font-family="Times,serif" font-size="13.00">Models diagram</text>
<text text-anchor="start" x="7.31226" y="-269.4" font-family="Times,serif" font-size="13.00">Date: May 28 2013 &#45; 18:50</text>
<text text-anchor="start" x="7.31226" y="-253.8" font-family="Times,serif" font-size="13.00">Migration version: 20130528134141</text>
<text text-anchor="start" x="7.31226" y="-238.2" font-family="Times,serif" font-size="13.00">Generated by RailRoady 1.1.0</text>
<text text-anchor="start" x="7.31226" y="-222.6" font-family="Times,serif" font-size="13.00">http://railroady.prestonlee.com</text>
</g>
<!-- Client -->
<g id="node2" class="node"><title>Client</title>
<ellipse fill="none" stroke="black" cx="259" cy="-259" rx="34.4613" ry="18"/>
<text text-anchor="middle" x="259" y="-253.4" font-family="Times,serif" font-size="14.00">Client</text>
</g>
<!-- Order -->
<g id="node5" class="node"><title>Order</title>
<ellipse fill="none" stroke="black" cx="363" cy="-162" rx="33.3348" ry="18"/>
<text text-anchor="middle" x="363" y="-156.4" font-family="Times,serif" font-size="14.00">Order</text>
</g>
<!-- Client&#45;&gt;Order -->
<g id="edge1" class="edge"><title>Client&#45;&gt;Order</title>
<path fill="none" stroke="#8765df" d="M280.909,-236.768C287.913,-230.066 295.735,-222.672 303,-216 314.533,-205.409 327.535,-193.876 338.479,-184.281"/>
<ellipse fill="none" stroke="#8765df" cx="277.631" cy="-239.917" rx="4.00002" ry="4.00002"/>
<polygon fill="#8765df" stroke="#8765df" points="338.505,-184.258 348.996,-181.066 342.27,-180.968 346.034,-177.678 346.034,-177.678 346.034,-177.678 342.27,-180.968 343.073,-174.289 338.505,-184.258 338.505,-184.258"/>
</g>
<!-- Document -->
<g id="node3" class="node"><title>Document</title>
<ellipse fill="none" stroke="black" cx="363" cy="-259" rx="50.8959" ry="18"/>
<text text-anchor="middle" x="363" y="-253.4" font-family="Times,serif" font-size="14.00">Document</text>
</g>
<!-- Document&#45;&gt;Order -->
<g id="edge2" class="edge"><title>Document&#45;&gt;Order</title>
<path fill="none" stroke="#19b6f9" d="M363,-230.115C363,-217.644 363,-202.986 363,-190.554"/>
<polygon fill="#19b6f9" stroke="#19b6f9" points="363,-230.576 358.5,-240.575 363,-235.576 363,-240.576 363,-240.576 363,-240.576 363,-235.576 367.5,-240.576 363,-230.576 363,-230.576"/>
<polygon fill="#19b6f9" stroke="#19b6f9" points="363,-190.314 367.5,-180.314 363,-185.314 363,-180.314 363,-180.314 363,-180.314 363,-185.314 358.5,-180.314 363,-190.314 363,-190.314"/>
</g>
<!-- Material -->
<g id="node4" class="node"><title>Material</title>
<ellipse fill="none" stroke="black" cx="476" cy="-259" rx="43.6191" ry="18"/>
<text text-anchor="middle" x="476" y="-253.4" font-family="Times,serif" font-size="14.00">Material</text>
</g>
<!-- Resource -->
<g id="node7" class="node"><title>Resource</title>
<ellipse fill="none" stroke="black" cx="506" cy="-162" rx="46.4511" ry="18"/>
<text text-anchor="middle" x="506" y="-156.4" font-family="Times,serif" font-size="14.00">Resource</text>
</g>
<!-- Material&#45;&gt;Resource -->
<g id="edge3" class="edge"><title>Material&#45;&gt;Resource</title>
<path fill="none" stroke="#96a795" d="M483.81,-233.269C488.215,-219.318 493.705,-201.935 498.122,-187.948"/>
<ellipse fill="none" stroke="#96a795" cx="482.568" cy="-237.202" rx="4.00001" ry="4.00001"/>
<ellipse fill="#96a795" stroke="#96a795" cx="499.377" cy="-183.972" rx="4.00001" ry="4.00001"/>
</g>
<!-- OrderTask -->
<g id="node6" class="node"><title>OrderTask</title>
<ellipse fill="none" stroke="black" cx="363" cy="-18" rx="51.4807" ry="18"/>
<text text-anchor="middle" x="363" y="-12.4" font-family="Times,serif" font-size="14.00">OrderTask</text>
</g>
<!-- Order&#45;&gt;OrderTask -->
<g id="edge4" class="edge"><title>Order&#45;&gt;OrderTask</title>
<path fill="none" stroke="#dbcb3e" d="M363,-135.558C363,-110.444 363,-72.164 363,-46.3932"/>
<ellipse fill="none" stroke="#dbcb3e" cx="363" cy="-139.871" rx="4" ry="4"/>
<polygon fill="#dbcb3e" stroke="#dbcb3e" points="363,-46.1893 367.5,-36.1892 363,-41.1893 363,-36.1893 363,-36.1893 363,-36.1893 363,-41.1893 358.5,-36.1893 363,-46.1893 363,-46.1893"/>
</g>
<!-- Task -->
<g id="node10" class="node"><title>Task</title>
<ellipse fill="none" stroke="black" cx="435" cy="-90" rx="29.2011" ry="18"/>
<text text-anchor="middle" x="435" y="-84.4" font-family="Times,serif" font-size="14.00">Task</text>
</g>
<!-- Order&#45;&gt;Task -->
<g id="edge5" class="edge"><title>Order&#45;&gt;Task</title>
<path fill="none" stroke="#9c3182" d="M385.941,-138.696C394.442,-130.431 404.067,-121.074 412.526,-112.85"/>
<polygon fill="#9c3182" stroke="#9c3182" points="385.793,-138.84 375.486,-142.585 382.208,-142.326 378.623,-145.811 378.623,-145.811 378.623,-145.811 382.208,-142.326 381.76,-149.038 385.793,-138.84 385.793,-138.84"/>
<polygon fill="#9c3182" stroke="#9c3182" points="412.731,-112.65 423.038,-108.906 416.316,-109.165 419.901,-105.68 419.901,-105.68 419.901,-105.68 416.316,-109.165 416.764,-102.453 412.731,-112.65 412.731,-112.65"/>
</g>
<!-- ResourceInTask -->
<g id="node8" class="node"><title>ResourceInTask</title>
<ellipse fill="none" stroke="black" cx="506" cy="-18" rx="73.1633" ry="18"/>
<text text-anchor="middle" x="506" y="-12.4" font-family="Times,serif" font-size="14.00">ResourceInTask</text>
</g>
<!-- Resource&#45;&gt;ResourceInTask -->
<g id="edge6" class="edge"><title>Resource&#45;&gt;ResourceInTask</title>
<path fill="none" stroke="#b78414" d="M506,-135.558C506,-110.444 506,-72.164 506,-46.3932"/>
<ellipse fill="none" stroke="#b78414" cx="506" cy="-139.871" rx="4" ry="4"/>
<polygon fill="#b78414" stroke="#b78414" points="506,-46.1893 510.5,-36.1892 506,-41.1893 506,-36.1893 506,-36.1893 506,-36.1893 506,-41.1893 501.5,-36.1893 506,-46.1893 506,-46.1893"/>
</g>
<!-- Resource&#45;&gt;Task -->
<g id="edge7" class="edge"><title>Resource&#45;&gt;Task</title>
<path fill="none" stroke="#05081c" d="M482.119,-137.456C474.132,-129.581 465.263,-120.837 457.394,-113.078"/>
<polygon fill="#05081c" stroke="#05081c" points="482.412,-137.744 486.373,-147.969 485.972,-141.254 489.533,-144.765 489.533,-144.765 489.533,-144.765 485.972,-141.254 492.692,-141.56 482.412,-137.744 482.412,-137.744"/>
<polygon fill="#05081c" stroke="#05081c" points="457.048,-112.738 453.087,-102.512 453.488,-109.227 449.927,-105.717 449.927,-105.717 449.927,-105.717 453.488,-109.227 446.768,-108.921 457.048,-112.738 457.048,-112.738"/>
</g>
<!-- Supplier -->
<g id="node9" class="node"><title>Supplier</title>
<ellipse fill="none" stroke="black" cx="582" cy="-259" rx="43.1445" ry="18"/>
<text text-anchor="middle" x="582" y="-253.4" font-family="Times,serif" font-size="14.00">Supplier</text>
</g>
<!-- Supplier&#45;&gt;Resource -->
<g id="edge8" class="edge"><title>Supplier&#45;&gt;Resource</title>
<path fill="none" stroke="#38ac26" d="M563.558,-234.948C551.631,-220.039 536.169,-200.712 524.275,-185.844"/>
<ellipse fill="none" stroke="#38ac26" cx="566.263" cy="-238.329" rx="4.00002" ry="4.00002"/>
<ellipse fill="#38ac26" stroke="#38ac26" cx="521.585" cy="-182.482" rx="4.00002" ry="4.00002"/>
</g>
<!-- Task&#45;&gt;OrderTask -->
<g id="edge9" class="edge"><title>Task&#45;&gt;OrderTask</title>
<path fill="none" stroke="#770f1f" d="M414.253,-68.8291C405.758,-60.5704 395.873,-50.9602 387.064,-42.3954"/>
<ellipse fill="none" stroke="#770f1f" cx="417.214" cy="-71.7076" rx="4.00002" ry="4.00002"/>
<polygon fill="#770f1f" stroke="#770f1f" points="386.831,-42.169 382.798,-31.9717 383.246,-38.6836 379.661,-35.1982 379.661,-35.1982 379.661,-35.1982 383.246,-38.6836 376.524,-38.4247 386.831,-42.169 386.831,-42.169"/>
</g>
<!-- Task&#45;&gt;ResourceInTask -->
<g id="edge10" class="edge"><title>Task&#45;&gt;ResourceInTask</title>
<path fill="none" stroke="#2370df" d="M456.02,-68.276C464.133,-60.2772 473.464,-51.0777 481.85,-42.8095"/>
<ellipse fill="none" stroke="#2370df" cx="452.906" cy="-71.3465" rx="4.00002" ry="4.00002"/>
<polygon fill="#2370df" stroke="#2370df" points="482.104,-42.5599 492.384,-38.7436 485.664,-39.0495 489.225,-35.5391 489.225,-35.5391 489.225,-35.5391 485.664,-39.0495 486.065,-32.3347 482.104,-42.5599 482.104,-42.5599"/>
</g>
<!-- Vehicle -->
<g id="node11" class="node"><title>Vehicle</title>
<ellipse fill="none" stroke="black" cx="684" cy="-259" rx="39.4899" ry="18"/>
<text text-anchor="middle" x="684" y="-253.4" font-family="Times,serif" font-size="14.00">Vehicle</text>
</g>
<!-- Vehicle&#45;&gt;Resource -->
<g id="edge11" class="edge"><title>Vehicle&#45;&gt;Resource</title>
<path fill="none" stroke="#16a174" d="M661.824,-236.861C653.519,-229.641 643.73,-221.907 634,-216 607.076,-199.655 574.204,-186.164 548.514,-176.883"/>
<ellipse fill="none" stroke="#16a174" cx="664.875" cy="-239.581" rx="4.00002" ry="4.00002"/>
<ellipse fill="#16a174" stroke="#16a174" cx="544.556" cy="-175.478" rx="4.00001" ry="4.00001"/>
</g>
</g>
</svg>
