<?xml version="1.0" encoding="UTF-8" standalone="no"?>
<!DOCTYPE svg PUBLIC "-//W3C//DTD SVG 1.1//EN"
 "http://www.w3.org/Graphics/SVG/1.1/DTD/svg11.dtd">
<!-- Generated by graphviz version 2.30.1 (20130528.1538)
 -->
<!-- Title: models_diagram Pages: 1 -->
<svg width="969pt" height="740pt"
 viewBox="0.00 0.00 969.00 740.00" xmlns="http://www.w3.org/2000/svg" xmlns:xlink="http://www.w3.org/1999/xlink">
<g id="graph0" class="graph" transform="scale(1 1) rotate(0) translate(4 736)">
<title>models_diagram</title>
<polygon fill="white" stroke="white" points="-4,5 -4,-736 966,-736 966,5 -4,5"/>
<!-- _diagram_info -->
<g id="node1" class="node"><title>_diagram_info</title>
<text text-anchor="start" x="7.31226" y="-682" font-family="Times,serif" font-size="13.00">Models diagram</text>
<text text-anchor="start" x="7.31226" y="-666.4" font-family="Times,serif" font-size="13.00">Date: May 28 2013 &#45; 18:50</text>
<text text-anchor="start" x="7.31226" y="-650.8" font-family="Times,serif" font-size="13.00">Migration version: 20130528134141</text>
<text text-anchor="start" x="7.31226" y="-635.2" font-family="Times,serif" font-size="13.00">Generated by RailRoady 1.1.0</text>
<text text-anchor="start" x="7.31226" y="-619.6" font-family="Times,serif" font-size="13.00">http://railroady.prestonlee.com</text>
</g>
<!-- Client -->
<g id="node2" class="node"><title>Client</title>
<path fill="none" stroke="black" d="M236.495,-580.8C236.495,-580.8 345.505,-580.8 345.505,-580.8 351.505,-580.8 357.505,-586.8 357.505,-592.8 357.505,-592.8 357.505,-719.2 357.505,-719.2 357.505,-725.2 351.505,-731.2 345.505,-731.2 345.505,-731.2 236.495,-731.2 236.495,-731.2 230.495,-731.2 224.495,-725.2 224.495,-719.2 224.495,-719.2 224.495,-592.8 224.495,-592.8 224.495,-586.8 230.495,-580.8 236.495,-580.8"/>
<text text-anchor="middle" x="291" y="-713.2" font-family="Times,serif" font-size="14.00">Client</text>
<polyline fill="none" stroke="black" points="224.495,-706.4 357.505,-706.4 "/>
<text text-anchor="start" x="232.495" y="-688.4" font-family="Times,serif" font-size="14.00">id :integer</text>
<text text-anchor="start" x="232.495" y="-671.6" font-family="Times,serif" font-size="14.00">name :string</text>
<text text-anchor="start" x="232.495" y="-654.8" font-family="Times,serif" font-size="14.00">email :string</text>
<text text-anchor="start" x="232.495" y="-638" font-family="Times,serif" font-size="14.00">phone :string</text>
<text text-anchor="start" x="232.495" y="-621.2" font-family="Times,serif" font-size="14.00">details :text</text>
<text text-anchor="start" x="232.495" y="-604.4" font-family="Times,serif" font-size="14.00">created_at :datetime</text>
<text text-anchor="start" x="232.495" y="-587.6" font-family="Times,serif" font-size="14.00">updated_at :datetime</text>
</g>
<!-- Order -->
<g id="node5" class="node"><title>Order</title>
<path fill="none" stroke="black" d="M387.495,-393.2C387.495,-393.2 496.505,-393.2 496.505,-393.2 502.505,-393.2 508.505,-399.2 508.505,-405.2 508.505,-405.2 508.505,-514.8 508.505,-514.8 508.505,-520.8 502.505,-526.8 496.505,-526.8 496.505,-526.8 387.495,-526.8 387.495,-526.8 381.495,-526.8 375.495,-520.8 375.495,-514.8 375.495,-514.8 375.495,-405.2 375.495,-405.2 375.495,-399.2 381.495,-393.2 387.495,-393.2"/>
<text text-anchor="middle" x="442" y="-508.8" font-family="Times,serif" font-size="14.00">Order</text>
<polyline fill="none" stroke="black" points="375.495,-502 508.505,-502 "/>
<text text-anchor="start" x="383.495" y="-484" font-family="Times,serif" font-size="14.00">id :integer</text>
<text text-anchor="start" x="383.495" y="-467.2" font-family="Times,serif" font-size="14.00">started_at :date</text>
<text text-anchor="start" x="383.495" y="-450.4" font-family="Times,serif" font-size="14.00">stage :string</text>
<text text-anchor="start" x="383.495" y="-433.6" font-family="Times,serif" font-size="14.00">created_at :datetime</text>
<text text-anchor="start" x="383.495" y="-416.8" font-family="Times,serif" font-size="14.00">updated_at :datetime</text>
<text text-anchor="start" x="383.495" y="-400" font-family="Times,serif" font-size="14.00">client_id :integer</text>
</g>
<!-- Client&#45;&gt;Order -->
<g id="edge1" class="edge"><title>Client&#45;&gt;Order</title>
<path fill="none" stroke="#df67e7" d="M354.129,-573.893C364.104,-561.078 374.376,-547.882 384.221,-535.233"/>
<ellipse fill="none" stroke="#df67e7" cx="351.406" cy="-577.393" rx="4.00002" ry="4.00002"/>
<polygon fill="#df67e7" stroke="#df67e7" points="384.479,-534.901 394.173,-529.774 387.55,-530.955 390.621,-527.01 390.621,-527.01 390.621,-527.01 387.55,-530.955 387.07,-524.245 384.479,-534.901 384.479,-534.901"/>
</g>
<!-- Document -->
<g id="node3" class="node"><title>Document</title>
<path fill="none" stroke="black" d="M387.495,-589.2C387.495,-589.2 496.505,-589.2 496.505,-589.2 502.505,-589.2 508.505,-595.2 508.505,-601.2 508.505,-601.2 508.505,-710.8 508.505,-710.8 508.505,-716.8 502.505,-722.8 496.505,-722.8 496.505,-722.8 387.495,-722.8 387.495,-722.8 381.495,-722.8 375.495,-716.8 375.495,-710.8 375.495,-710.8 375.495,-601.2 375.495,-601.2 375.495,-595.2 381.495,-589.2 387.495,-589.2"/>
<text text-anchor="middle" x="442" y="-704.8" font-family="Times,serif" font-size="14.00">Document</text>
<polyline fill="none" stroke="black" points="375.495,-698 508.505,-698 "/>
<text text-anchor="start" x="383.495" y="-680" font-family="Times,serif" font-size="14.00">id :integer</text>
<text text-anchor="start" x="383.495" y="-663.2" font-family="Times,serif" font-size="14.00">name :string</text>
<text text-anchor="start" x="383.495" y="-646.4" font-family="Times,serif" font-size="14.00">code :string</text>
<text text-anchor="start" x="383.495" y="-629.6" font-family="Times,serif" font-size="14.00">template :text</text>
<text text-anchor="start" x="383.495" y="-612.8" font-family="Times,serif" font-size="14.00">created_at :datetime</text>
<text text-anchor="start" x="383.495" y="-596" font-family="Times,serif" font-size="14.00">updated_at :datetime</text>
</g>
<!-- Document&#45;&gt;Order -->
<g id="edge2" class="edge"><title>Document&#45;&gt;Order</title>
<path fill="none" stroke="#9fd08a" d="M442,-578.587C442,-565.024 442,-550.899 442,-537.338"/>
<polygon fill="#9fd08a" stroke="#9fd08a" points="442,-579.05 437.5,-589.05 442,-584.05 442,-589.05 442,-589.05 442,-589.05 442,-584.05 446.5,-589.05 442,-579.05 442,-579.05"/>
<polygon fill="#9fd08a" stroke="#9fd08a" points="442,-537.097 446.5,-527.097 442,-532.097 442,-527.097 442,-527.097 442,-527.097 442,-532.097 437.5,-527.097 442,-537.097 442,-537.097"/>
</g>
<!-- Material -->
<g id="node4" class="node"><title>Material</title>
<path fill="none" stroke="black" d="M538.495,-606C538.495,-606 647.505,-606 647.505,-606 653.505,-606 659.505,-612 659.505,-618 659.505,-618 659.505,-694 659.505,-694 659.505,-700 653.505,-706 647.505,-706 647.505,-706 538.495,-706 538.495,-706 532.495,-706 526.495,-700 526.495,-694 526.495,-694 526.495,-618 526.495,-618 526.495,-612 532.495,-606 538.495,-606"/>
<text text-anchor="middle" x="593" y="-688" font-family="Times,serif" font-size="14.00">Material</text>
<polyline fill="none" stroke="black" points="526.495,-681.2 659.505,-681.2 "/>
<text text-anchor="start" x="534.495" y="-663.2" font-family="Times,serif" font-size="14.00">id :integer</text>
<text text-anchor="start" x="534.495" y="-646.4" font-family="Times,serif" font-size="14.00">measurement :string</text>
<text text-anchor="start" x="534.495" y="-629.6" font-family="Times,serif" font-size="14.00">created_at :datetime</text>
<text text-anchor="start" x="534.495" y="-612.8" font-family="Times,serif" font-size="14.00">updated_at :datetime</text>
</g>
<!-- Resource -->
<g id="node7" class="node"><title>Resource</title>
<path fill="none" stroke="black" d="M582.933,-376.4C582.933,-376.4 709.067,-376.4 709.067,-376.4 715.067,-376.4 721.067,-382.4 721.067,-388.4 721.067,-388.4 721.067,-531.6 721.067,-531.6 721.067,-537.6 715.067,-543.6 709.067,-543.6 709.067,-543.6 582.933,-543.6 582.933,-543.6 576.933,-543.6 570.933,-537.6 570.933,-531.6 570.933,-531.6 570.933,-388.4 570.933,-388.4 570.933,-382.4 576.933,-376.4 582.933,-376.4"/>
<text text-anchor="middle" x="646" y="-525.6" font-family="Times,serif" font-size="14.00">Resource</text>
<polyline fill="none" stroke="black" points="570.933,-518.8 721.067,-518.8 "/>
<text text-anchor="start" x="578.933" y="-500.8" font-family="Times,serif" font-size="14.00">id :integer</text>
<text text-anchor="start" x="578.933" y="-484" font-family="Times,serif" font-size="14.00">name :string</text>
<text text-anchor="start" x="578.933" y="-467.2" font-family="Times,serif" font-size="14.00">code :string</text>
<text text-anchor="start" x="578.933" y="-450.4" font-family="Times,serif" font-size="14.00">price :decimal</text>
<text text-anchor="start" x="578.933" y="-433.6" font-family="Times,serif" font-size="14.00">resoursable_id :integer</text>
<text text-anchor="start" x="578.933" y="-416.8" font-family="Times,serif" font-size="14.00">resoursable_type :string</text>
<text text-anchor="start" x="578.933" y="-400" font-family="Times,serif" font-size="14.00">created_at :datetime</text>
<text text-anchor="start" x="578.933" y="-383.2" font-family="Times,serif" font-size="14.00">updated_at :datetime</text>
</g>
<!-- Material&#45;&gt;Resource -->
<g id="edge3" class="edge"><title>Material&#45;&gt;Resource</title>
<path fill="none" stroke="#5ca3c1" d="M608.665,-597.66C612.6,-583.257 616.92,-567.445 621.181,-551.847"/>
<ellipse fill="none" stroke="#5ca3c1" cx="607.497" cy="-601.936" rx="4.00001" ry="4.00001"/>
<ellipse fill="#5ca3c1" stroke="#5ca3c1" cx="622.348" cy="-547.576" rx="4.00001" ry="4.00001"/>
</g>
<!-- OrderTask -->
<g id="node6" class="node"><title>OrderTask</title>
<path fill="none" stroke="black" d="M413.495,-1.2C413.495,-1.2 522.505,-1.2 522.505,-1.2 528.505,-1.2 534.505,-7.2 534.505,-13.2 534.505,-13.2 534.505,-122.8 534.505,-122.8 534.505,-128.8 528.505,-134.8 522.505,-134.8 522.505,-134.8 413.495,-134.8 413.495,-134.8 407.495,-134.8 401.495,-128.8 401.495,-122.8 401.495,-122.8 401.495,-13.2 401.495,-13.2 401.495,-7.2 407.495,-1.2 413.495,-1.2"/>
<text text-anchor="middle" x="468" y="-116.8" font-family="Times,serif" font-size="14.00">OrderTask</text>
<polyline fill="none" stroke="black" points="401.495,-110 534.505,-110 "/>
<text text-anchor="start" x="409.495" y="-92" font-family="Times,serif" font-size="14.00">id :integer</text>
<text text-anchor="start" x="409.495" y="-75.2" font-family="Times,serif" font-size="14.00">order_id :integer</text>
<text text-anchor="start" x="409.495" y="-58.4" font-family="Times,serif" font-size="14.00">task_id :integer</text>
<text text-anchor="start" x="409.495" y="-41.6" font-family="Times,serif" font-size="14.00">amount :float</text>
<text text-anchor="start" x="409.495" y="-24.8" font-family="Times,serif" font-size="14.00">created_at :datetime</text>
<text text-anchor="start" x="409.495" y="-8" font-family="Times,serif" font-size="14.00">updated_at :datetime</text>
</g>
<!-- Order&#45;&gt;OrderTask -->
<g id="edge4" class="edge"><title>Order&#45;&gt;OrderTask</title>
<path fill="none" stroke="#8ae215" d="M446.853,-385.158C450.671,-327.191 456.14,-244.449 461,-172 461.584,-163.295 462.199,-154.176 462.812,-145.115"/>
<ellipse fill="none" stroke="#8ae215" cx="446.588" cy="-389.178" rx="4" ry="4"/>
<polygon fill="#8ae215" stroke="#8ae215" points="462.826,-144.913 467.991,-135.24 463.164,-139.924 463.502,-134.935 463.502,-134.935 463.502,-134.935 463.164,-139.924 459.012,-134.631 462.826,-144.913 462.826,-144.913"/>
</g>
<!-- Task -->
<g id="node10" class="node"><title>Task</title>
<path fill="none" stroke="black" d="M481.719,-172.4C481.719,-172.4 606.281,-172.4 606.281,-172.4 612.281,-172.4 618.281,-178.4 618.281,-184.4 618.281,-184.4 618.281,-327.6 618.281,-327.6 618.281,-333.6 612.281,-339.6 606.281,-339.6 606.281,-339.6 481.719,-339.6 481.719,-339.6 475.719,-339.6 469.719,-333.6 469.719,-327.6 469.719,-327.6 469.719,-184.4 469.719,-184.4 469.719,-178.4 475.719,-172.4 481.719,-172.4"/>
<text text-anchor="middle" x="544" y="-321.6" font-family="Times,serif" font-size="14.00">Task</text>
<polyline fill="none" stroke="black" points="469.719,-314.8 618.281,-314.8 "/>
<text text-anchor="start" x="477.719" y="-296.8" font-family="Times,serif" font-size="14.00">id :integer</text>
<text text-anchor="start" x="477.719" y="-280" font-family="Times,serif" font-size="14.00">name :string</text>
<text text-anchor="start" x="477.719" y="-263.2" font-family="Times,serif" font-size="14.00">price :decimal</text>
<text text-anchor="start" x="477.719" y="-246.4" font-family="Times,serif" font-size="14.00">execution_time :integer</text>
<text text-anchor="start" x="477.719" y="-229.6" font-family="Times,serif" font-size="14.00">priority :integer</text>
<text text-anchor="start" x="477.719" y="-212.8" font-family="Times,serif" font-size="14.00">measurement :string</text>
<text text-anchor="start" x="477.719" y="-196" font-family="Times,serif" font-size="14.00">created_at :datetime</text>
<text text-anchor="start" x="477.719" y="-179.2" font-family="Times,serif" font-size="14.00">updated_at :datetime</text>
</g>
<!-- Order&#45;&gt;Task -->
<g id="edge5" class="edge"><title>Order&#45;&gt;Task</title>
<path fill="none" stroke="#c599f3" d="M479.963,-383.818C485.744,-372.37 491.764,-360.447 497.699,-348.695"/>
<polygon fill="#c599f3" stroke="#c599f3" points="479.765,-384.211 471.241,-391.109 477.511,-388.674 475.257,-393.137 475.257,-393.137 475.257,-393.137 477.511,-388.674 479.274,-395.166 479.765,-384.211 479.765,-384.211"/>
<polygon fill="#c599f3" stroke="#c599f3" points="497.707,-348.677 506.232,-341.779 499.961,-344.214 502.215,-339.751 502.215,-339.751 502.215,-339.751 499.961,-344.214 498.198,-337.722 497.707,-348.677 497.707,-348.677"/>
</g>
<!-- ResourceInTask -->
<g id="node8" class="node"><title>ResourceInTask</title>
<path fill="none" stroke="black" d="M577.495,-1.2C577.495,-1.2 686.505,-1.2 686.505,-1.2 692.505,-1.2 698.505,-7.2 698.505,-13.2 698.505,-13.2 698.505,-122.8 698.505,-122.8 698.505,-128.8 692.505,-134.8 686.505,-134.8 686.505,-134.8 577.495,-134.8 577.495,-134.8 571.495,-134.8 565.495,-128.8 565.495,-122.8 565.495,-122.8 565.495,-13.2 565.495,-13.2 565.495,-7.2 571.495,-1.2 577.495,-1.2"/>
<text text-anchor="middle" x="632" y="-116.8" font-family="Times,serif" font-size="14.00">ResourceInTask</text>
<polyline fill="none" stroke="black" points="565.495,-110 698.505,-110 "/>
<text text-anchor="start" x="573.495" y="-92" font-family="Times,serif" font-size="14.00">id :integer</text>
<text text-anchor="start" x="573.495" y="-75.2" font-family="Times,serif" font-size="14.00">task_id :integer</text>
<text text-anchor="start" x="573.495" y="-58.4" font-family="Times,serif" font-size="14.00">resource_id :integer</text>
<text text-anchor="start" x="573.495" y="-41.6" font-family="Times,serif" font-size="14.00">amount :float</text>
<text text-anchor="start" x="573.495" y="-24.8" font-family="Times,serif" font-size="14.00">created_at :datetime</text>
<text text-anchor="start" x="573.495" y="-8" font-family="Times,serif" font-size="14.00">updated_at :datetime</text>
</g>
<!-- Resource&#45;&gt;ResourceInTask -->
<g id="edge6" class="edge"><title>Resource&#45;&gt;ResourceInTask</title>
<path fill="none" stroke="#ce2eb5" d="M642.739,-368.164C640.308,-300.45 637.026,-209.016 634.733,-145.121"/>
<ellipse fill="none" stroke="#ce2eb5" cx="642.887" cy="-372.294" rx="4" ry="4"/>
<polygon fill="#ce2eb5" stroke="#ce2eb5" points="634.732,-145.103 638.87,-134.948 634.553,-140.107 634.373,-135.11 634.373,-135.11 634.373,-135.11 634.553,-140.107 629.876,-135.271 634.732,-145.103 634.732,-145.103"/>
</g>
<!-- Resource&#45;&gt;Task -->
<g id="edge7" class="edge"><title>Resource&#45;&gt;Task</title>
<path fill="none" stroke="#f79583" d="M599.61,-367.129C596.498,-360.967 593.363,-354.759 590.252,-348.597"/>
<polygon fill="#f79583" stroke="#f79583" points="599.711,-367.329 600.201,-378.284 601.965,-371.793 604.218,-376.256 604.218,-376.256 604.218,-376.256 601.965,-371.793 608.235,-374.228 599.711,-367.329 599.711,-367.329"/>
<polygon fill="#f79583" stroke="#f79583" points="590.224,-348.542 589.734,-337.587 587.97,-344.079 585.717,-339.615 585.717,-339.615 585.717,-339.615 587.97,-344.079 581.7,-341.644 590.224,-348.542 590.224,-348.542"/>
</g>
<!-- Supplier -->
<g id="node9" class="node"><title>Supplier</title>
<path fill="none" stroke="black" d="M689.495,-606C689.495,-606 798.505,-606 798.505,-606 804.505,-606 810.505,-612 810.505,-618 810.505,-618 810.505,-694 810.505,-694 810.505,-700 804.505,-706 798.505,-706 798.505,-706 689.495,-706 689.495,-706 683.495,-706 677.495,-700 677.495,-694 677.495,-694 677.495,-618 677.495,-618 677.495,-612 683.495,-606 689.495,-606"/>
<text text-anchor="middle" x="744" y="-688" font-family="Times,serif" font-size="14.00">Supplier</text>
<polyline fill="none" stroke="black" points="677.495,-681.2 810.505,-681.2 "/>
<text text-anchor="start" x="685.495" y="-663.2" font-family="Times,serif" font-size="14.00">id :integer</text>
<text text-anchor="start" x="685.495" y="-646.4" font-family="Times,serif" font-size="14.00">qualification :integer</text>
<text text-anchor="start" x="685.495" y="-629.6" font-family="Times,serif" font-size="14.00">created_at :datetime</text>
<text text-anchor="start" x="685.495" y="-612.8" font-family="Times,serif" font-size="14.00">updated_at :datetime</text>
</g>
<!-- Supplier&#45;&gt;Resource -->
<g id="edge8" class="edge"><title>Supplier&#45;&gt;Resource</title>
<path fill="none" stroke="#23d543" d="M715.499,-598.58C707.987,-583.71 699.692,-567.287 691.525,-551.121"/>
<ellipse fill="none" stroke="#23d543" cx="717.34" cy="-602.224" rx="4.00002" ry="4.00002"/>
<ellipse fill="#23d543" stroke="#23d543" cx="689.589" cy="-547.288" rx="4.00002" ry="4.00002"/>
</g>
<!-- Task&#45;&gt;OrderTask -->
<g id="edge9" class="edge"><title>Task&#45;&gt;OrderTask</title>
<path fill="none" stroke="#f031e1" d="M507.097,-164.684C504.344,-157.948 501.585,-151.194 498.875,-144.562"/>
<ellipse fill="none" stroke="#f031e1" cx="508.71" cy="-168.632" rx="4.00001" ry="4.00001"/>
<polygon fill="#f031e1" stroke="#f031e1" points="498.73,-144.207 499.113,-133.248 496.839,-139.578 494.947,-134.95 494.947,-134.95 494.947,-134.95 496.839,-139.578 490.782,-136.652 498.73,-144.207 498.73,-144.207"/>
</g>
<!-- Task&#45;&gt;ResourceInTask -->
<g id="edge10" class="edge"><title>Task&#45;&gt;ResourceInTask</title>
<path fill="none" stroke="#fd014c" d="M586.591,-164.979C589.883,-158.02 593.186,-151.038 596.426,-144.19"/>
<ellipse fill="none" stroke="#fd014c" cx="584.821" cy="-168.719" rx="4.00002" ry="4.00002"/>
<polygon fill="#fd014c" stroke="#fd014c" points="596.521,-143.989 604.866,-136.874 598.66,-139.47 600.798,-134.95 600.798,-134.95 600.798,-134.95 598.66,-139.47 596.73,-133.025 596.521,-143.989 596.521,-143.989"/>
</g>
<!-- Vehicle -->
<g id="node11" class="node"><title>Vehicle</title>
<path fill="none" stroke="black" d="M840.495,-614.4C840.495,-614.4 949.505,-614.4 949.505,-614.4 955.505,-614.4 961.505,-620.4 961.505,-626.4 961.505,-626.4 961.505,-685.6 961.505,-685.6 961.505,-691.6 955.505,-697.6 949.505,-697.6 949.505,-697.6 840.495,-697.6 840.495,-697.6 834.495,-697.6 828.495,-691.6 828.495,-685.6 828.495,-685.6 828.495,-626.4 828.495,-626.4 828.495,-620.4 834.495,-614.4 840.495,-614.4"/>
<text text-anchor="middle" x="895" y="-679.6" font-family="Times,serif" font-size="14.00">Vehicle</text>
<polyline fill="none" stroke="black" points="828.495,-672.8 961.505,-672.8 "/>
<text text-anchor="start" x="836.495" y="-654.8" font-family="Times,serif" font-size="14.00">id :integer</text>
<text text-anchor="start" x="836.495" y="-638" font-family="Times,serif" font-size="14.00">created_at :datetime</text>
<text text-anchor="start" x="836.495" y="-621.2" font-family="Times,serif" font-size="14.00">updated_at :datetime</text>
</g>
<!-- Vehicle&#45;&gt;Resource -->
<g id="edge11" class="edge"><title>Vehicle&#45;&gt;Resource</title>
<path fill="none" stroke="#400b48" d="M850.575,-608.585C840.502,-598.799 829.631,-588.786 819,-580 790.644,-556.566 757.763,-533.116 728.329,-513.305"/>
<ellipse fill="none" stroke="#400b48" cx="853.552" cy="-611.507" rx="4.00002" ry="4.00002"/>
<ellipse fill="#400b48" stroke="#400b48" cx="724.644" cy="-510.837" rx="4.00002" ry="4.00002"/>
</g>
</g>
</svg>
