<?xml version="1.0" encoding="UTF-8" standalone="no"?>
<!DOCTYPE svg PUBLIC "-//W3C//DTD SVG 1.1//EN"
 "http://www.w3.org/Graphics/SVG/1.1/DTD/svg11.dtd">
<!-- Generated by graphviz version 2.30.1 (20130528.1538)
 -->
<!-- Title: models_diagram Pages: 1 -->
<svg width="781pt" height="310pt"
 viewBox="0.00 0.00 781.00 310.00" xmlns="http://www.w3.org/2000/svg" xmlns:xlink="http://www.w3.org/1999/xlink">
<g id="graph0" class="graph" transform="scale(1 1) rotate(0) translate(4 306)">
<title>models_diagram</title>
<polygon fill="white" stroke="white" points="-4,5 -4,-306 778,-306 778,5 -4,5"/>
<!-- _diagram_info -->
<g id="node1" class="node"><title>_diagram_info</title>
<text text-anchor="start" x="7.31226" y="-285" font-family="Times,serif" font-size="13.00">Models diagram</text>
<text text-anchor="start" x="7.31226" y="-269.4" font-family="Times,serif" font-size="13.00">Date: May 29 2013 &#45; 13:20</text>
<text text-anchor="start" x="7.31226" y="-253.8" font-family="Times,serif" font-size="13.00">Migration version: 20130528134141</text>
<text text-anchor="start" x="7.31226" y="-238.2" font-family="Times,serif" font-size="13.00">Generated by RailRoady 1.1.0</text>
<text text-anchor="start" x="7.31226" y="-222.6" font-family="Times,serif" font-size="13.00">http://railroady.prestonlee.com</text>
</g>
<!-- Client -->
<g id="node2" class="node"><title>Client</title>
<ellipse fill="none" stroke="black" cx="259" cy="-259" rx="34.4613" ry="18"/>
<text text-anchor="middle" x="259" y="-253.4" font-family="Times,serif" font-size="14.00">Client</text>
</g>
<!-- Order -->
<g id="node5" class="node"><title>Order</title>
<ellipse fill="none" stroke="black" cx="311" cy="-162" rx="33.3348" ry="18"/>
<text text-anchor="middle" x="311" y="-156.4" font-family="Times,serif" font-size="14.00">Order</text>
</g>
<!-- Client&#45;&gt;Order -->
<g id="edge1" class="edge"><title>Client&#45;&gt;Order</title>
<path fill="none" stroke="#8fcea4" d="M272.121,-234.03C279.721,-220.145 289.285,-202.672 297.025,-188.531"/>
<ellipse fill="none" stroke="#8fcea4" cx="269.978" cy="-237.944" rx="4.00002" ry="4.00002"/>
<polygon fill="#8fcea4" stroke="#8fcea4" points="297.245,-188.13 305.993,-181.519 299.645,-183.744 302.046,-179.358 302.046,-179.358 302.046,-179.358 299.645,-183.744 298.099,-177.197 297.245,-188.13 297.245,-188.13"/>
</g>
<!-- Document -->
<g id="node3" class="node"><title>Document</title>
<ellipse fill="none" stroke="black" cx="363" cy="-259" rx="50.8959" ry="18"/>
<text text-anchor="middle" x="363" y="-253.4" font-family="Times,serif" font-size="14.00">Document</text>
</g>
<!-- Document&#45;&gt;Order -->
<g id="edge2" class="edge"><title>Document&#45;&gt;Order</title>
<path fill="none" stroke="#122c4f" d="M348.899,-232.239C341.435,-218.603 332.302,-201.918 324.872,-188.344"/>
<polygon fill="#122c4f" stroke="#122c4f" points="348.902,-232.244 349.756,-243.177 351.303,-236.63 353.703,-241.016 353.703,-241.016 353.703,-241.016 351.303,-236.63 357.651,-238.855 348.902,-232.244 348.902,-232.244"/>
<polygon fill="#122c4f" stroke="#122c4f" points="324.843,-188.291 323.989,-177.358 322.443,-183.905 320.042,-179.519 320.042,-179.519 320.042,-179.519 322.443,-183.905 316.095,-181.68 324.843,-188.291 324.843,-188.291"/>
</g>
<!-- Material -->
<g id="node4" class="node"><title>Material</title>
<ellipse fill="none" stroke="black" cx="526" cy="-162" rx="43.6191" ry="18"/>
<text text-anchor="middle" x="526" y="-156.4" font-family="Times,serif" font-size="14.00">Material</text>
</g>
<!-- OrderTask -->
<g id="node6" class="node"><title>OrderTask</title>
<ellipse fill="none" stroke="black" cx="303" cy="-18" rx="51.4807" ry="18"/>
<text text-anchor="middle" x="303" y="-12.4" font-family="Times,serif" font-size="14.00">OrderTask</text>
</g>
<!-- Order&#45;&gt;OrderTask -->
<g id="edge4" class="edge"><title>Order&#45;&gt;OrderTask</title>
<path fill="none" stroke="#07c234" d="M309.567,-135.558C308.152,-110.444 305.995,-72.164 304.543,-46.3932"/>
<ellipse fill="none" stroke="#07c234" cx="309.81" cy="-139.878" rx="4" ry="4"/>
<polygon fill="#07c234" stroke="#07c234" points="304.531,-46.1734 308.461,-35.9361 304.25,-41.1813 303.968,-36.1893 303.968,-36.1893 303.968,-36.1893 304.25,-41.1813 299.476,-36.4424 304.531,-46.1734 304.531,-46.1734"/>
</g>
<!-- Task -->
<g id="node10" class="node"><title>Task</title>
<ellipse fill="none" stroke="black" cx="378" cy="-90" rx="29.2011" ry="18"/>
<text text-anchor="middle" x="378" y="-84.4" font-family="Times,serif" font-size="14.00">Task</text>
</g>
<!-- Order&#45;&gt;Task -->
<g id="edge5" class="edge"><title>Order&#45;&gt;Task</title>
<path fill="none" stroke="#85fdbc" d="M332.874,-138.146C340.446,-130.236 348.922,-121.38 356.467,-113.498"/>
<polygon fill="#85fdbc" stroke="#85fdbc" points="332.784,-138.241 322.619,-142.353 329.327,-141.853 325.869,-145.465 325.869,-145.465 325.869,-145.465 329.327,-141.853 329.12,-148.576 332.784,-138.241 332.784,-138.241"/>
<polygon fill="#85fdbc" stroke="#85fdbc" points="356.717,-113.236 366.883,-109.123 360.175,-109.623 363.632,-106.011 363.632,-106.011 363.632,-106.011 360.175,-109.623 360.381,-102.9 356.717,-113.236 356.717,-113.236"/>
</g>
<!-- Resource -->
<g id="node7" class="node"><title>Resource</title>
<ellipse fill="none" stroke="black" cx="417" cy="-162" rx="46.4511" ry="18"/>
<text text-anchor="middle" x="417" y="-156.4" font-family="Times,serif" font-size="14.00">Resource</text>
</g>
<!-- ResourceInTask -->
<g id="node8" class="node"><title>ResourceInTask</title>
<ellipse fill="none" stroke="black" cx="446" cy="-18" rx="73.1633" ry="18"/>
<text text-anchor="middle" x="446" y="-12.4" font-family="Times,serif" font-size="14.00">ResourceInTask</text>
</g>
<!-- Resource&#45;&gt;ResourceInTask -->
<g id="edge6" class="edge"><title>Resource&#45;&gt;ResourceInTask</title>
<path fill="none" stroke="#a16529" d="M422.12,-135.929C427.267,-110.725 435.177,-71.9942 440.467,-46.0947"/>
<ellipse fill="none" stroke="#a16529" cx="421.298" cy="-139.952" rx="4.00001" ry="4.00001"/>
<polygon fill="#a16529" stroke="#a16529" points="440.488,-45.987 446.899,-37.0897 441.489,-41.0881 442.49,-36.1893 442.49,-36.1893 442.49,-36.1893 441.489,-41.0881 438.081,-35.2888 440.488,-45.987 440.488,-45.987"/>
</g>
<!-- Resource&#45;&gt;Task -->
<g id="edge7" class="edge"><title>Resource&#45;&gt;Task</title>
<path fill="none" stroke="#6050a3" d="M402.6,-135.154C399.193,-129.038 395.562,-122.521 392.165,-116.424"/>
<polygon fill="#6050a3" stroke="#6050a3" points="402.692,-135.319 403.628,-146.245 405.126,-139.687 407.559,-144.055 407.559,-144.055 407.559,-144.055 405.126,-139.687 411.49,-141.865 402.692,-135.319 402.692,-135.319"/>
<polygon fill="#6050a3" stroke="#6050a3" points="391.952,-116.043 391.016,-105.117 389.519,-111.675 387.085,-107.307 387.085,-107.307 387.085,-107.307 389.519,-111.675 383.154,-109.497 391.952,-116.043 391.952,-116.043"/>
</g>
<!-- Supplier -->
<g id="node9" class="node"><title>Supplier</title>
<ellipse fill="none" stroke="black" cx="632" cy="-162" rx="43.1445" ry="18"/>
<text text-anchor="middle" x="632" y="-156.4" font-family="Times,serif" font-size="14.00">Supplier</text>
</g>
<!-- Task&#45;&gt;OrderTask -->
<g id="edge9" class="edge"><title>Task&#45;&gt;OrderTask</title>
<path fill="none" stroke="#ddf57a" d="M356.388,-68.8291C347.45,-60.4869 337.035,-50.7659 327.789,-42.1362"/>
<ellipse fill="none" stroke="#ddf57a" cx="359.536" cy="-71.7667" rx="4.00002" ry="4.00002"/>
<polygon fill="#ddf57a" stroke="#ddf57a" points="327.666,-42.0214 323.426,-31.9084 324.01,-38.6098 320.355,-35.1982 320.355,-35.1982 320.355,-35.1982 324.01,-38.6098 317.285,-38.488 327.666,-42.0214 327.666,-42.0214"/>
</g>
<!-- Task&#45;&gt;ResourceInTask -->
<g id="edge10" class="edge"><title>Task&#45;&gt;ResourceInTask</title>
<path fill="none" stroke="#8700d9" d="M398.089,-68.3197C405.8,-60.3819 414.665,-51.2566 422.656,-43.0307"/>
<ellipse fill="none" stroke="#8700d9" cx="395.208" cy="-71.2857" rx="4.00002" ry="4.00002"/>
<polygon fill="#8700d9" stroke="#8700d9" points="422.723,-42.9618 432.918,-38.9245 426.207,-39.3754 429.691,-35.789 429.691,-35.789 429.691,-35.789 426.207,-39.3754 426.463,-32.6535 422.723,-42.9618 422.723,-42.9618"/>
</g>
<!-- Vehicle -->
<g id="node11" class="node"><title>Vehicle</title>
<ellipse fill="none" stroke="black" cx="734" cy="-162" rx="39.4899" ry="18"/>
<text text-anchor="middle" x="734" y="-156.4" font-family="Times,serif" font-size="14.00">Vehicle</text>
</g>
<!-- Resoursable::Resoursable -->
<g id="node12" class="node"><title>Resoursable::Resoursable</title>
<ellipse fill="none" stroke="black" cx="632" cy="-259" rx="110.205" ry="18"/>
<text text-anchor="middle" x="632" y="-253.4" font-family="Times,serif" font-size="14.00">Resoursable::Resoursable</text>
</g>
<!-- Resoursable::Resoursable&#45;&gt;Material -->
<g id="edge3" class="edge"><title>Resoursable::Resoursable&#45;&gt;Material</title>
<path fill="none" stroke="black" d="M613.049,-241.016C593.279,-223.297 562.546,-195.754 543.381,-178.578"/>
</g>
<!-- Resoursable::Resoursable&#45;&gt;Supplier -->
<g id="edge8" class="edge"><title>Resoursable::Resoursable&#45;&gt;Supplier</title>
<path fill="none" stroke="black" d="M632,-240.576C632,-223.434 632,-197.417 632,-180.314"/>
</g>
<!-- Resoursable::Resoursable&#45;&gt;Vehicle -->
<g id="edge11" class="edge"><title>Resoursable::Resoursable&#45;&gt;Vehicle</title>
<path fill="none" stroke="black" d="M650.236,-241.016C669.26,-223.297 698.833,-195.754 717.275,-178.578"/>
</g>
</g>
</svg>
